<?xml version="1.0" encoding="UTF-8" standalone="no"?>
<svg version="1.1" xmlns="http://www.w3.org/2000/svg" width="450px" height="600px" x="0" y="0" viewBox="0 0 450 600"><g><rect fill="#000000" x="0" y="0" width="450" height="600"/></g><g><circle cx="225" cy="300" r="5.4318315503125545" fill="#ff0000" fill-opacity="1"/><circle cx="216.3397459621556" cy="315" r="4.009851858329819" fill="#0000ff" fill-opacity="1"/><circle cx="233.6602540378444" cy="315" r="4.280000014718783" fill="#00ff00" fill-opacity="1"/><circle cx="242.32050807568876" cy="300" r="3.7044600099701683" fill="#0000ff" fill-opacity="1"/><circle cx="233.6602540378444" cy="285" r="5.266433341274576" fill="#00ff00" fill-opacity="1"/><circle cx="216.3397459621556" cy="285" r="3.7949098197068905" fill="#0000ff" fill-opacity="1"/><circle cx="207.67949192431124" cy="300" r="4.07749959216791" fill="#00ff00" fill-opacity="1"/><circle cx="207.67949192431124" cy="330" r="2.941941701056111" fill="#00ff00" fill-opacity="1"/><circle cx="225" cy="330" r="4.0985687070338885" fill="#ff0000" fill-opacity="1"/><circle cx="242.32050807568876" cy="330" r="2.880887161520945" fill="#0000ff" fill-opacity="1"/><circle cx="250.98076211353316" cy="315" r="4.549026483886206" fill="#ff0000" fill-opacity="1"/><circle cx="259.6410161513775" cy="300" r="3.9300642744939345" fill="#00ff00" fill-opacity="1"/><circle cx="250.98076211353316" cy="285" r="6.078012626929798" fill="#ff0000" fill-opacity="1"/><circle cx="242.32050807568876" cy="270" r="3.772468248241458" fill="#0000ff" fill-opacity="1"/><circle cx="225" cy="270" r="6.352565922975478" fill="#ff0000" fill-opacity="1"/><circle cx="207.67949192431124" cy="270" r="3.1914864077770346" fill="#00ff00" fill-opacity="1"/><circle cx="199.01923788646684" cy="285" r="5.266433341274576" fill="#ff0000" fill-opacity="1"/><circle cx="190.35898384862247" cy="300" r="3.6933288938674798" fill="#0000ff" fill-opacity="1"/><circle cx="199.01923788646684" cy="315" r="5.2172466189212825" fill="#ff0000" fill-opacity="1"/><circle cx="199.01923788646684" cy="345" r="5.034321774850196" fill="#ff0000" fill-opacity="1"/><circle cx="216.3397459621556" cy="345" r="2.8115342830712646" fill="#0000ff" fill-opacity="1"/><circle cx="233.6602540378444" cy="345" r="3.7044600099701683" fill="#00ff00" fill-opacity="1"/><circle cx="250.98076211353316" cy="345" r="6.143899452489372" fill="#ff0000" fill-opacity="1"/><circle cx="259.6410161513775" cy="330" r="4.481869831376604" fill="#00ff00" fill-opacity="1"/><circle cx="268.3012701892219" cy="315" r="3.8963056183512497" fill="#0000ff" fill-opacity="1"/><circle cx="276.9615242270663" cy="300" r="3.9225856524353984" fill="#ff0000" fill-opacity="1"/><circle cx="268.3012701892219" cy="285" r="3.8963056183512497" fill="#0000ff" fill-opacity="1"/><circle cx="259.6410161513775" cy="270" r="5.117379174119108" fill="#00ff00" fill-opacity="1"/><circle cx="250.98076211353316" cy="255" r="7.453252207272506" fill="#ff0000" fill-opacity="1"/><circle cx="233.6602540378444" cy="255" r="5.582418509377838" fill="#00ff00" fill-opacity="1"/><circle cx="216.3397459621556" cy="255" r="5.1338793273372945" fill="#0000ff" fill-opacity="1"/><circle cx="199.01923788646684" cy="255" r="8.426155463874471" fill="#ff0000" fill-opacity="1"/><circle cx="190.35898384862247" cy="270" r="3.828728640925129" fill="#0000ff" fill-opacity="1"/><circle cx="181.69872981077808" cy="285" r="3.2508130343028716" fill="#00ff00" fill-opacity="1"/><circle cx="173.03847577293368" cy="300" r="4.533897702165589" fill="#ff0000" fill-opacity="1"/><circle cx="181.69872981077808" cy="315" r="2.3331743231368995" fill="#00ff00" fill-opacity="1"/><circle cx="190.35898384862247" cy="330" r="2.0275182982718034" fill="#0000ff" fill-opacity="1"/><circle cx="190.35898384862247" cy="360" r="3.1138142399345736" fill="#0000ff" fill-opacity="1"/><circle cx="207.67949192431124" cy="360" r="3.6363658933715803" fill="#00ff00" fill-opacity="1"/><circle cx="225" cy="360" r="5.38342605294334" fill="#ff0000" fill-opacity="1"/><circle cx="242.32050807568876" cy="360" r="3.4999105514191213" fill="#0000ff" fill-opacity="1"/><circle cx="259.6410161513775" cy="360" r="4.883868604304067" fill="#00ff00" fill-opacity="1"/><circle cx="268.3012701892219" cy="345" r="4.280000014718783" fill="#0000ff" fill-opacity="1"/><circle cx="276.9615242270663" cy="330" r="6.581426229405123" fill="#ff0000" fill-opacity="1"/><circle cx="276.9615242270663" cy="270" r="6.221563960819942" fill="#ff0000" fill-opacity="1"/><circle cx="268.3012701892219" cy="255" r="4.313687666855576" fill="#0000ff" fill-opacity="1"/><circle cx="259.6410161513775" cy="240" r="5.97909994364611" fill="#00ff00" fill-opacity="1"/><circle cx="242.32050807568876" cy="240" r="3.7044600099701683" fill="#0000ff" fill-opacity="1"/><circle cx="225" cy="240" r="4.111295255471878" fill="#ff0000" fill-opacity="1"/><circle cx="207.67949192431124" cy="240" r="3.9300642744939345" fill="#00ff00" fill-opacity="1"/><circle cx="190.35898384862247" cy="240" r="3.828728640925129" fill="#0000ff" fill-opacity="1"/><circle cx="181.69872981077808" cy="255" r="4.716639169891091" fill="#00ff00" fill-opacity="1"/><circle cx="173.03847577293368" cy="270" r="6.352565922975478" fill="#ff0000" fill-opacity="1"/><circle cx="164.3782217350893" cy="285" r="1.6301654659471785" fill="#0000ff" fill-opacity="1"/><circle cx="181.69872981077808" cy="345" r="5.939915416545032" fill="#00ff00" fill-opacity="1"/><circle cx="181.69872981077808" cy="375" r="3.1138142399345736" fill="#00ff00" fill-opacity="1"/><circle cx="199.01923788646684" cy="375" r="4.768212968605918" fill="#ff0000" fill-opacity="1"/><circle cx="216.3397459621556" cy="375" r="3.15708870691492" fill="#0000ff" fill-opacity="1"/><circle cx="233.6602540378444" cy="375" r="4.313687666855576" fill="#00ff00" fill-opacity="1"/><circle cx="250.98076211353316" cy="375" r="6.538331974318416" fill="#ff0000" fill-opacity="1"/><circle cx="268.3012701892219" cy="375" r="4.817021658027827" fill="#0000ff" fill-opacity="1"/><circle cx="276.9615242270663" cy="360" r="7.875711874204856" fill="#ff0000" fill-opacity="1"/><circle cx="285.6217782649107" cy="345" r="5.034321774850196" fill="#00ff00" fill-opacity="1"/><circle cx="294.28203230275506" cy="330" r="4.701538723749496" fill="#0000ff" fill-opacity="1"/><circle cx="294.28203230275506" cy="270" r="2.3331743231368995" fill="#0000ff" fill-opacity="1"/><circle cx="285.6217782649107" cy="255" r="5.10070719854917" fill="#00ff00" fill-opacity="1"/><circle cx="276.9615242270663" cy="240" r="6.209743015563723" fill="#ff0000" fill-opacity="1"/><circle cx="268.3012701892219" cy="225" r="3.7949098197068905" fill="#0000ff" fill-opacity="1"/><circle cx="250.98076211353316" cy="225" r="5.959048670940771" fill="#ff0000" fill-opacity="1"/><circle cx="233.6602540378444" cy="225" r="3.319155862773851" fill="#00ff00" fill-opacity="1"/><circle cx="216.3397459621556" cy="225" r="2.3864884772957033" fill="#0000ff" fill-opacity="1"/><circle cx="199.01923788646684" cy="225" r="5.497901983786931" fill="#ff0000" fill-opacity="1"/><circle cx="181.69872981077808" cy="225" r="3.6933288938674798" fill="#00ff00" fill-opacity="1"/><circle cx="173.03847577293368" cy="240" r="5.23331478567553" fill="#ff0000" fill-opacity="1"/><circle cx="164.3782217350893" cy="255" r="6.131185506900516" fill="#0000ff" fill-opacity="1"/><circle cx="173.03847577293368" cy="360" r="3.9759993418511392" fill="#ff0000" fill-opacity="1"/><circle cx="173.03847577293368" cy="390" r="4.668178777341738" fill="#ff0000" fill-opacity="1"/><circle cx="190.35898384862247" cy="390" r="4.043685199924347" fill="#0000ff" fill-opacity="1"/><circle cx="207.67949192431124" cy="390" r="4.683147885111648" fill="#00ff00" fill-opacity="1"/><circle cx="225" cy="390" r="6.842392546277067" fill="#ff0000" fill-opacity="1"/><circle cx="242.32050807568876" cy="390" r="4.280000014718783" fill="#0000ff" fill-opacity="1"/><circle cx="259.6410161513775" cy="390" r="6.735001630196244" fill="#00ff00" fill-opacity="1"/><circle cx="276.9615242270663" cy="390" r="7.6541770450518465" fill="#ff0000" fill-opacity="1"/><circle cx="285.6217782649107" cy="375" r="6.74460188888369" fill="#00ff00" fill-opacity="1"/><circle cx="294.28203230275506" cy="360" r="7.070246075791091" fill="#0000ff" fill-opacity="1"/><circle cx="302.9422863405995" cy="345" r="8.629688435357876" fill="#ff0000" fill-opacity="1"/><circle cx="302.9422863405995" cy="255" r="2.6082647455154855" fill="#ff0000" fill-opacity="1"/><circle cx="294.28203230275506" cy="240" r="4.467690049307614" fill="#0000ff" fill-opacity="1"/><circle cx="285.6217782649107" cy="225" r="3.045151294209642" fill="#00ff00" fill-opacity="1"/><circle cx="276.9615242270663" cy="210" r="2.1452804323399635" fill="#ff0000" fill-opacity="1"/><circle cx="259.6410161513775" cy="210" r="3.3288138567068795" fill="#00ff00" fill-opacity="1"/><circle cx="242.32050807568876" cy="210" r="4.07749959216791" fill="#0000ff" fill-opacity="1"/><circle cx="225" cy="210" r="6.505519108615082" fill="#ff0000" fill-opacity="1"/><circle cx="207.67949192431124" cy="210" r="5.563922850140218" fill="#00ff00" fill-opacity="1"/><circle cx="190.35898384862247" cy="210" r="4.043685199924347" fill="#0000ff" fill-opacity="1"/><circle cx="173.03847577293368" cy="210" r="5.4318315503125545" fill="#ff0000" fill-opacity="1"/><circle cx="164.3782217350893" cy="225" r="4.034199519353063" fill="#0000ff" fill-opacity="1"/><circle cx="155.71796769724492" cy="360" r="0.9271566087574578" fill="#00ff00" fill-opacity="1"/><circle cx="164.3782217350893" cy="375" r="4.601412495989346" fill="#0000ff" fill-opacity="1"/><circle cx="164.3782217350893" cy="405" r="6.7772082190740806" fill="#0000ff" fill-opacity="1"/><circle cx="181.69872981077808" cy="405" r="6.842392546277067" fill="#00ff00" fill-opacity="1"/><circle cx="199.01923788646684" cy="405" r="7.159947598913409" fill="#ff0000" fill-opacity="1"/><circle cx="216.3397459621556" cy="405" r="5.283757781973356" fill="#0000ff" fill-opacity="1"/><circle cx="233.6602540378444" cy="405" r="5.847059159183047" fill="#00ff00" fill-opacity="1"/><circle cx="250.98076211353316" cy="405" r="7.940584813884598" fill="#ff0000" fill-opacity="1"/><circle cx="268.3012701892219" cy="405" r="6.800480592362623" fill="#0000ff" fill-opacity="1"/><circle cx="285.6217782649107" cy="405" r="6.505519108615082" fill="#00ff00" fill-opacity="1"/><circle cx="294.28203230275506" cy="390" r="4.601412495989346" fill="#0000ff" fill-opacity="1"/><circle cx="302.9422863405995" cy="375" r="1.998457661724912" fill="#ff0000" fill-opacity="1"/><circle cx="311.60254037844385" cy="360" r="8.490772002429907" fill="#00ff00" fill-opacity="1"/><circle cx="320.2627944162882" cy="345" r="0.8965910062709481" fill="#0000ff" fill-opacity="1"/><circle cx="302.9422863405995" cy="225" r="5.200695074948386" fill="#ff0000" fill-opacity="1"/><circle cx="294.28203230275506" cy="210" r="2.180737779323745" fill="#0000ff" fill-opacity="1"/><circle cx="285.6217782649107" cy="195" r="1.4960250169760714" fill="#00ff00" fill-opacity="1"/><circle cx="268.3012701892219" cy="195" r="1.7875474753295961" fill="#0000ff" fill-opacity="1"/><circle cx="250.98076211353316" cy="195" r="3.1226638022816204" fill="#ff0000" fill-opacity="1"/><circle cx="233.6602540378444" cy="195" r="2.5327630318907306" fill="#00ff00" fill-opacity="1"/><circle cx="216.3397459621556" cy="195" r="2.6026714341637667" fill="#0000ff" fill-opacity="1"/><circle cx="199.01923788646684" cy="195" r="4.17883125231693" fill="#ff0000" fill-opacity="1"/><circle cx="181.69872981077808" cy="195" r="2.5327630318907306" fill="#00ff00" fill-opacity="1"/><circle cx="164.3782217350893" cy="195" r="1.7875474753295961" fill="#0000ff" fill-opacity="1"/><circle cx="155.71796769724492" cy="210" r="5.8059757268551415" fill="#00ff00" fill-opacity="1"/><circle cx="147.05771365940052" cy="225" r="1.4467718510281204" fill="#ff0000" fill-opacity="1"/><circle cx="147.05771365940052" cy="375" r="4.197676074813986" fill="#ff0000" fill-opacity="1"/><circle cx="155.71796769724492" cy="390" r="6.385290551182246" fill="#00ff00" fill-opacity="1"/><circle cx="155.71796769724492" cy="420" r="6.341302694126194" fill="#00ff00" fill-opacity="1"/><circle cx="173.03847577293368" cy="420" r="7.1273143472488565" fill="#ff0000" fill-opacity="1"/><circle cx="190.35898384862247" cy="420" r="6.767745890793529" fill="#0000ff" fill-opacity="1"/><circle cx="207.67949192431124" cy="420" r="5.563922850140218" fill="#00ff00" fill-opacity="1"/><circle cx="225" cy="420" r="7.355561904993322" fill="#ff0000" fill-opacity="1"/><circle cx="242.32050807568876" cy="420" r="5.48297871119791" fill="#0000ff" fill-opacity="1"/><circle cx="259.6410161513775" cy="420" r="7.355561904993322" fill="#00ff00" fill-opacity="1"/><circle cx="276.9615242270663" cy="420" r="6.143899452489372" fill="#ff0000" fill-opacity="1"/><circle cx="294.28203230275506" cy="420" r="7.427419945298043" fill="#0000ff" fill-opacity="1"/><circle cx="302.9422863405995" cy="405" r="7.2251874444045265" fill="#ff0000" fill-opacity="1"/><circle cx="311.60254037844385" cy="390" r="4.801527555070009" fill="#00ff00" fill-opacity="1"/><circle cx="320.2627944162882" cy="375" r="7.621807887654565" fill="#0000ff" fill-opacity="1"/><circle cx="328.92304845413264" cy="360" r="7.926679578168155" fill="#ff0000" fill-opacity="1"/><circle cx="311.60254037844385" cy="210" r="2.2720431181638796" fill="#00ff00" fill-opacity="1"/><circle cx="302.9422863405995" cy="195" r="2.3514503473700983" fill="#ff0000" fill-opacity="1"/><circle cx="294.28203230275506" cy="180" r="1.7875474753295961" fill="#0000ff" fill-opacity="1"/><circle cx="276.9615242270663" cy="180" r="1.4960250169760714" fill="#ff0000" fill-opacity="1"/><circle cx="259.6410161513775" cy="180" r="1.67570670465645" fill="#00ff00" fill-opacity="1"/><circle cx="242.32050807568876" cy="180" r="1.4960250169760714" fill="#0000ff" fill-opacity="1"/><circle cx="225" cy="180" r="1.9628639357832698" fill="#ff0000" fill-opacity="1"/><circle cx="207.67949192431124" cy="180" r="1.8914914925659434" fill="#00ff00" fill-opacity="1"/><circle cx="190.35898384862247" cy="180" r="2.672431993378717" fill="#0000ff" fill-opacity="1"/><circle cx="173.03847577293368" cy="180" r="4.280000014718783" fill="#ff0000" fill-opacity="1"/><circle cx="155.71796769724492" cy="180" r="2.907479046332341" fill="#00ff00" fill-opacity="1"/><circle cx="147.05771365940052" cy="195" r="2.6375697877797664" fill="#ff0000" fill-opacity="1"/><circle cx="138.39745962155615" cy="210" r="5.336536258404909" fill="#0000ff" fill-opacity="1"/><circle cx="138.39745962155615" cy="390" r="4.961816136976726" fill="#0000ff" fill-opacity="1"/><circle cx="147.05771365940052" cy="405" r="6.450709247160561" fill="#ff0000" fill-opacity="1"/><circle cx="147.05771365940052" cy="435" r="7.062020929573547" fill="#ff0000" fill-opacity="1"/><circle cx="164.3782217350893" cy="435" r="6.30842852683891" fill="#0000ff" fill-opacity="1"/><circle cx="181.69872981077808" cy="435" r="5.662862888049853" fill="#00ff00" fill-opacity="1"/><circle cx="199.01923788646684" cy="435" r="7.2903920815077985" fill="#ff0000" fill-opacity="1"/><circle cx="216.3397459621556" cy="435" r="5.067521387552808" fill="#0000ff" fill-opacity="1"/><circle cx="233.6602540378444" cy="435" r="6.045052802331386" fill="#00ff00" fill-opacity="1"/><circle cx="250.98076211353316" cy="435" r="7.61590066453207" fill="#ff0000" fill-opacity="1"/><circle cx="268.3012701892219" cy="435" r="6.045052802331386" fill="#0000ff" fill-opacity="1"/><circle cx="285.6217782649107" cy="435" r="7.875711874204856" fill="#00ff00" fill-opacity="1"/><circle cx="302.9422863405995" cy="435" r="8.167395702480384" fill="#ff0000" fill-opacity="1"/><circle cx="311.60254037844385" cy="420" r="8.203243563437077" fill="#00ff00" fill-opacity="1"/><circle cx="320.2627944162882" cy="405" r="7.778343084701605" fill="#0000ff" fill-opacity="1"/><circle cx="328.92304845413264" cy="390" r="8.629688435357876" fill="#ff0000" fill-opacity="1"/><circle cx="337.583302491977" cy="375" r="8.267694437894106" fill="#00ff00" fill-opacity="1"/><circle cx="346.2435565298214" cy="360" r="1.6301654659471785" fill="#0000ff" fill-opacity="1"/><circle cx="311.60254037844385" cy="180" r="4.258807279787003" fill="#00ff00" fill-opacity="1"/><circle cx="302.9422863405995" cy="165" r="3.963803365623428" fill="#ff0000" fill-opacity="1"/><circle cx="285.6217782649107" cy="165" r="2.907479046332341" fill="#00ff00" fill-opacity="1"/><circle cx="268.3012701892219" cy="165" r="1.639465883539216" fill="#0000ff" fill-opacity="1"/><circle cx="250.98076211353316" cy="165" r="1.5694690497397443" fill="#ff0000" fill-opacity="1"/><circle cx="233.6602540378444" cy="165" r="1.9272093016570786" fill="#00ff00" fill-opacity="1"/><circle cx="216.3397459621556" cy="165" r="1.7875474753295961" fill="#0000ff" fill-opacity="1"/><circle cx="199.01923788646684" cy="165" r="2.8384612078569598" fill="#ff0000" fill-opacity="1"/><circle cx="181.69872981077808" cy="165" r="3.963803365623428" fill="#00ff00" fill-opacity="1"/><circle cx="164.3782217350893" cy="165" r="3.319155862773851" fill="#0000ff" fill-opacity="1"/><circle cx="147.05771365940052" cy="165" r="5.365710756279972" fill="#ff0000" fill-opacity="1"/><circle cx="138.39745962155615" cy="180" r="2.769316000622425" fill="#0000ff" fill-opacity="1"/><circle cx="129.73720558371176" cy="195" r="4.408878589462787" fill="#00ff00" fill-opacity="1"/><circle cx="129.73720558371176" cy="405" r="7.297659924864628" fill="#00ff00" fill-opacity="1"/><circle cx="138.39745962155615" cy="420" r="6.833205793165557" fill="#0000ff" fill-opacity="1"/><circle cx="138.39745962155615" cy="450" r="7.029360659212607" fill="#0000ff" fill-opacity="1"/><circle cx="155.71796769724492" cy="450" r="7.322981320616913" fill="#00ff00" fill-opacity="1"/><circle cx="173.03847577293368" cy="450" r="6.571134852782907" fill="#ff0000" fill-opacity="1"/><circle cx="190.35898384862247" cy="450" r="4.801527555070009" fill="#0000ff" fill-opacity="1"/><circle cx="207.67949192431124" cy="450" r="7.4922491732317535" fill="#00ff00" fill-opacity="1"/><circle cx="225" cy="450" r="6.636710901013826" fill="#ff0000" fill-opacity="1"/><circle cx="242.32050807568876" cy="450" r="7.070246075791091" fill="#0000ff" fill-opacity="1"/><circle cx="259.6410161513775" cy="450" r="6.6039278074587475" fill="#00ff00" fill-opacity="1"/><circle cx="276.9615242270663" cy="450" r="7.680902051513528" fill="#ff0000" fill-opacity="1"/><circle cx="294.28203230275506" cy="450" r="7.094672141428913" fill="#0000ff" fill-opacity="1"/><circle cx="311.60254037844385" cy="450" r="7.843263569005528" fill="#00ff00" fill-opacity="1"/><circle cx="320.2627944162882" cy="435" r="7.589430565470314" fill="#0000ff" fill-opacity="1"/><circle cx="328.92304845413264" cy="420" r="8.629688435357876" fill="#ff0000" fill-opacity="1"/><circle cx="337.583302491977" cy="405" r="8.523069451705611" fill="#00ff00" fill-opacity="1"/><circle cx="346.2435565298214" cy="390" r="7.589430565470314" fill="#0000ff" fill-opacity="1"/><circle cx="354.9038105676658" cy="375" r="8.629688435357876" fill="#ff0000" fill-opacity="1"/><circle cx="294.28203230275506" cy="150" r="4.006300967028583" fill="#0000ff" fill-opacity="1"/><circle cx="276.9615242270663" cy="150" r="2.5958610575740435" fill="#ff0000" fill-opacity="1"/><circle cx="259.6410161513775" cy="150" r="1.9272093016570786" fill="#00ff00" fill-opacity="1"/><circle cx="242.32050807568876" cy="150" r="3.828728640925129" fill="#0000ff" fill-opacity="1"/><circle cx="225" cy="150" r="4.668178777341738" fill="#ff0000" fill-opacity="1"/><circle cx="207.67949192431124" cy="150" r="3.2508130343028716" fill="#00ff00" fill-opacity="1"/><circle cx="190.35898384862247" cy="150" r="3.2166031063828178" fill="#0000ff" fill-opacity="1"/><circle cx="173.03847577293368" cy="150" r="5.1338793273372945" fill="#ff0000" fill-opacity="1"/><circle cx="155.71796769724492" cy="150" r="3.6933288938674798" fill="#00ff00" fill-opacity="1"/><circle cx="112.41669750802299" cy="405" r="2.486002335569448" fill="#0000ff" fill-opacity="1"/><circle cx="121.07695154586737" cy="420" r="7.037722907903786" fill="#ff0000" fill-opacity="1"/><circle cx="129.73720558371176" cy="435" r="7.459838752636445" fill="#00ff00" fill-opacity="1"/><circle cx="129.73720558371176" cy="465" r="7.557045035030472" fill="#00ff00" fill-opacity="1"/><circle cx="147.05771365940052" cy="465" r="7.094672141428913" fill="#ff0000" fill-opacity="1"/><circle cx="164.3782217350893" cy="465" r="6.996691277275762" fill="#0000ff" fill-opacity="1"/><circle cx="181.69872981077808" cy="465" r="7.2251874444045265" fill="#00ff00" fill-opacity="1"/><circle cx="199.01923788646684" cy="465" r="6.439863157691648" fill="#ff0000" fill-opacity="1"/><circle cx="216.3397459621556" cy="465" r="5.563922850140218" fill="#0000ff" fill-opacity="1"/><circle cx="233.6602540378444" cy="465" r="7.062020929573547" fill="#00ff00" fill-opacity="1"/><circle cx="250.98076211353316" cy="465" r="6.6039278074587475" fill="#ff0000" fill-opacity="1"/><circle cx="268.3012701892219" cy="465" r="6.833205793165557" fill="#0000ff" fill-opacity="1"/><circle cx="285.6217782649107" cy="465" r="7.583387632003881" fill="#00ff00" fill-opacity="1"/><circle cx="302.9422863405995" cy="465" r="7.589430565470314" fill="#ff0000" fill-opacity="1"/><circle cx="320.2627944162882" cy="465" r="6.931324963330346" fill="#0000ff" fill-opacity="1"/><circle cx="328.92304845413264" cy="450" r="8.005426458836759" fill="#ff0000" fill-opacity="1"/><circle cx="337.583302491977" cy="435" r="8.07023712306486" fill="#00ff00" fill-opacity="1"/><circle cx="346.2435565298214" cy="420" r="7.61590066453207" fill="#0000ff" fill-opacity="1"/><circle cx="354.9038105676658" cy="405" r="8.393836306528215" fill="#ff0000" fill-opacity="1"/><circle cx="363.56406460551017" cy="390" r="8.396507895011373" fill="#00ff00" fill-opacity="1"/><circle cx="372.22431864335454" cy="375" r="8.222793214532231" fill="#0000ff" fill-opacity="1"/><circle cx="285.6217782649107" cy="135" r="5.995348384348977" fill="#00ff00" fill-opacity="1"/><circle cx="268.3012701892219" cy="135" r="4.750115130139094" fill="#0000ff" fill-opacity="1"/><circle cx="250.98076211353316" cy="135" r="3.3288138567068795" fill="#ff0000" fill-opacity="1"/><circle cx="233.6602540378444" cy="135" r="4.26661187898963" fill="#00ff00" fill-opacity="1"/><circle cx="216.3397459621556" cy="135" r="2.427608011594228" fill="#0000ff" fill-opacity="1"/><circle cx="199.01923788646684" cy="135" r="2.56773612869743" fill="#ff0000" fill-opacity="1"/><circle cx="181.69872981077808" cy="135" r="4.199448290422878" fill="#00ff00" fill-opacity="1"/><circle cx="164.3782217350893" cy="135" r="5.9258460938427024" fill="#0000ff" fill-opacity="1"/><circle cx="103.7564434701786" cy="420" r="7.55989234833004" fill="#00ff00" fill-opacity="1"/><circle cx="112.41669750802299" cy="435" r="6.874970657308998" fill="#0000ff" fill-opacity="1"/><circle cx="121.07695154586737" cy="450" r="6.931324963330346" fill="#ff0000" fill-opacity="1"/><circle cx="121.07695154586737" cy="480" r="6.972649450320895" fill="#ff0000" fill-opacity="1"/><circle cx="138.39745962155615" cy="480" r="6.472696191425821" fill="#0000ff" fill-opacity="1"/><circle cx="155.71796769724492" cy="480" r="7.355561904993322" fill="#00ff00" fill-opacity="1"/><circle cx="173.03847577293368" cy="480" r="7.062020929573547" fill="#ff0000" fill-opacity="1"/><circle cx="190.35898384862247" cy="480" r="7.192571947722294" fill="#0000ff" fill-opacity="1"/><circle cx="207.67949192431124" cy="480" r="7.55086631480845" fill="#00ff00" fill-opacity="1"/><circle cx="225" cy="480" r="6.6039278074587475" fill="#ff0000" fill-opacity="1"/><circle cx="242.32050807568876" cy="480" r="6.636710901013826" fill="#0000ff" fill-opacity="1"/><circle cx="259.6410161513775" cy="480" r="7.322981320616913" fill="#00ff00" fill-opacity="1"/><circle cx="276.9615242270663" cy="480" r="7.1273143472488565" fill="#ff0000" fill-opacity="1"/><circle cx="294.28203230275506" cy="480" r="4.568005856268845" fill="#0000ff" fill-opacity="1"/><circle cx="311.60254037844385" cy="480" r="7.427419945298043" fill="#00ff00" fill-opacity="1"/><circle cx="328.92304845413264" cy="480" r="6.505519108615082" fill="#ff0000" fill-opacity="1"/><circle cx="337.583302491977" cy="465" r="7.843263569005528" fill="#00ff00" fill-opacity="1"/><circle cx="346.2435565298214" cy="450" r="7.362556986653914" fill="#0000ff" fill-opacity="1"/><circle cx="354.9038105676658" cy="435" r="8.102630933862596" fill="#ff0000" fill-opacity="1"/><circle cx="363.56406460551017" cy="420" r="7.815901850710543" fill="#00ff00" fill-opacity="1"/><circle cx="372.22431864335454" cy="405" r="7.524651252412278" fill="#0000ff" fill-opacity="1"/><circle cx="380.88457268119896" cy="390" r="8.629688435357876" fill="#ff0000" fill-opacity="1"/><circle cx="389.54482671904333" cy="375" r="1.5995998634606687" fill="#00ff00" fill-opacity="1"/><circle cx="259.6410161513775" cy="120" r="6.130069090055832" fill="#00ff00" fill-opacity="1"/><circle cx="242.32050807568876" cy="120" r="4.26661187898963" fill="#0000ff" fill-opacity="1"/><circle cx="225" cy="120" r="6.751439652382673" fill="#ff0000" fill-opacity="1"/><circle cx="207.67949192431124" cy="120" r="5.947461593727574" fill="#00ff00" fill-opacity="1"/><circle cx="190.35898384862247" cy="120" r="6.748664245627455" fill="#0000ff" fill-opacity="1"/><circle cx="95.09618943233423" cy="435" r="7.682154758276079" fill="#ff0000" fill-opacity="1"/><circle cx="103.7564434701786" cy="450" r="6.548761874551542" fill="#00ff00" fill-opacity="1"/><circle cx="112.41669750802299" cy="465" r="5.582418509377838" fill="#0000ff" fill-opacity="1"/><circle cx="112.41669750802299" cy="495" r="4.501144794442869" fill="#0000ff" fill-opacity="1"/><circle cx="129.73720558371176" cy="495" r="6.538331974318416" fill="#00ff00" fill-opacity="1"/><circle cx="147.05771365940052" cy="495" r="6.636710901013826" fill="#ff0000" fill-opacity="1"/><circle cx="164.3782217350893" cy="495" r="6.833205793165557" fill="#0000ff" fill-opacity="1"/><circle cx="181.69872981077808" cy="495" r="7.25779413912783" fill="#00ff00" fill-opacity="1"/><circle cx="199.01923788646684" cy="495" r="6.110961484942394" fill="#ff0000" fill-opacity="1"/><circle cx="216.3397459621556" cy="495" r="6.275543904982012" fill="#0000ff" fill-opacity="1"/><circle cx="233.6602540378444" cy="495" r="6.70224775160707" fill="#00ff00" fill-opacity="1"/><circle cx="250.98076211353316" cy="495" r="6.275543904982012" fill="#ff0000" fill-opacity="1"/><circle cx="268.3012701892219" cy="495" r="6.374166476200638" fill="#0000ff" fill-opacity="1"/><circle cx="285.6217782649107" cy="495" r="6.800480592362623" fill="#00ff00" fill-opacity="1"/><circle cx="302.9422863405995" cy="495" r="7.25779413912783" fill="#ff0000" fill-opacity="1"/><circle cx="320.2627944162882" cy="495" r="6.176826604666142" fill="#0000ff" fill-opacity="1"/><circle cx="337.583302491977" cy="495" r="6.01208193398122" fill="#00ff00" fill-opacity="1"/><circle cx="346.2435565298214" cy="480" r="5.23331478567553" fill="#0000ff" fill-opacity="1"/><circle cx="354.9038105676658" cy="465" r="7.420697301080487" fill="#ff0000" fill-opacity="1"/><circle cx="363.56406460551017" cy="450" r="7.2251874444045265" fill="#00ff00" fill-opacity="1"/><circle cx="372.22431864335454" cy="435" r="6.385290551182246" fill="#0000ff" fill-opacity="1"/><circle cx="380.88457268119896" cy="420" r="7.557045035030472" fill="#ff0000" fill-opacity="1"/><circle cx="389.54482671904333" cy="405" r="8.074252088646602" fill="#00ff00" fill-opacity="1"/><circle cx="398.2050807568877" cy="390" r="8.116583506433305" fill="#0000ff" fill-opacity="1"/><circle cx="86.43593539448983" cy="450" r="0.9271566087574578" fill="#0000ff" fill-opacity="1"/><circle cx="95.09618943233423" cy="465" r="6.090393108153538" fill="#ff0000" fill-opacity="1"/><circle cx="103.7564434701786" cy="480" r="6.057573461348836" fill="#00ff00" fill-opacity="1"/><circle cx="103.7564434701786" cy="510" r="5.880086441921785" fill="#00ff00" fill-opacity="1"/><circle cx="121.07695154586737" cy="510" r="4.701538723749496" fill="#ff0000" fill-opacity="1"/><circle cx="138.39745962155615" cy="510" r="5.913102278618755" fill="#0000ff" fill-opacity="1"/><circle cx="155.71796769724492" cy="510" r="6.996691277275762" fill="#00ff00" fill-opacity="1"/><circle cx="173.03847577293368" cy="510" r="6.996691277275762" fill="#ff0000" fill-opacity="1"/><circle cx="190.35898384862247" cy="510" r="6.01208193398122" fill="#0000ff" fill-opacity="1"/><circle cx="207.67949192431124" cy="510" r="6.209743015563723" fill="#00ff00" fill-opacity="1"/><circle cx="225" cy="510" r="7.1352655510893745" fill="#ff0000" fill-opacity="1"/><circle cx="242.32050807568876" cy="510" r="5.946106752003503" fill="#0000ff" fill-opacity="1"/><circle cx="259.6410161513775" cy="510" r="6.439863157691648" fill="#00ff00" fill-opacity="1"/><circle cx="276.9615242270663" cy="510" r="6.045052802331386" fill="#ff0000" fill-opacity="1"/><circle cx="294.28203230275506" cy="510" r="6.374166476200638" fill="#0000ff" fill-opacity="1"/><circle cx="311.60254037844385" cy="510" r="7.4922491732317535" fill="#00ff00" fill-opacity="1"/><circle cx="328.92304845413264" cy="510" r="6.341302694126194" fill="#ff0000" fill-opacity="1"/><circle cx="346.2435565298214" cy="510" r="6.374166476200638" fill="#0000ff" fill-opacity="1"/><circle cx="354.9038105676658" cy="495" r="4.901382843974126" fill="#ff0000" fill-opacity="1"/><circle cx="363.56406460551017" cy="480" r="6.439863157691648" fill="#00ff00" fill-opacity="1"/><circle cx="372.22431864335454" cy="465" r="5.596914936990767" fill="#0000ff" fill-opacity="1"/><circle cx="380.88457268119896" cy="450" r="6.341302694126194" fill="#ff0000" fill-opacity="1"/><circle cx="389.54482671904333" cy="435" r="7.1273143472488565" fill="#00ff00" fill-opacity="1"/><circle cx="398.2050807568877" cy="420" r="6.940099054292843" fill="#0000ff" fill-opacity="1"/><circle cx="406.8653347947321" cy="405" r="7.977428807640475" fill="#ff0000" fill-opacity="1"/><circle cx="86.43593539448983" cy="480" r="2.6693959504885045" fill="#0000ff" fill-opacity="1"/><circle cx="95.09618943233423" cy="495" r="6.483403447027512" fill="#ff0000" fill-opacity="1"/><circle cx="95.09618943233423" cy="525" r="6.221563960819942" fill="#ff0000" fill-opacity="1"/><circle cx="112.41669750802299" cy="525" r="5.034321774850196" fill="#0000ff" fill-opacity="1"/><circle cx="129.73720558371176" cy="525" r="6.516087634826125" fill="#00ff00" fill-opacity="1"/><circle cx="147.05771365940052" cy="525" r="6.110961484942394" fill="#ff0000" fill-opacity="1"/><circle cx="164.3782217350893" cy="525" r="6.646725533420311" fill="#0000ff" fill-opacity="1"/><circle cx="181.69872981077808" cy="525" r="6.078012626929798" fill="#00ff00" fill-opacity="1"/><circle cx="199.01923788646684" cy="525" r="5.350216281517767" fill="#ff0000" fill-opacity="1"/><circle cx="216.3397459621556" cy="525" r="6.907539474861538" fill="#0000ff" fill-opacity="1"/><circle cx="233.6602540378444" cy="525" r="7.518336668387057" fill="#00ff00" fill-opacity="1"/><circle cx="250.98076211353316" cy="525" r="5.97909994364611" fill="#ff0000" fill-opacity="1"/><circle cx="268.3012701892219" cy="525" r="5.97909994364611" fill="#0000ff" fill-opacity="1"/><circle cx="285.6217782649107" cy="525" r="6.30842852683891" fill="#00ff00" fill-opacity="1"/><circle cx="302.9422863405995" cy="525" r="7.718891037130907" fill="#ff0000" fill-opacity="1"/><circle cx="320.2627944162882" cy="525" r="6.176826604666142" fill="#0000ff" fill-opacity="1"/><circle cx="337.583302491977" cy="525" r="6.505519108615082" fill="#00ff00" fill-opacity="1"/><circle cx="354.9038105676658" cy="525" r="7.029360659212607" fill="#ff0000" fill-opacity="1"/><circle cx="363.56406460551017" cy="510" r="4.26661187898963" fill="#00ff00" fill-opacity="1"/><circle cx="372.22431864335454" cy="495" r="4.549026483886206" fill="#0000ff" fill-opacity="1"/><circle cx="380.88457268119896" cy="480" r="5.46487301195315" fill="#ff0000" fill-opacity="1"/><circle cx="389.54482671904333" cy="465" r="6.833205793165557" fill="#00ff00" fill-opacity="1"/><circle cx="398.2050807568877" cy="450" r="6.483403447027512" fill="#0000ff" fill-opacity="1"/><circle cx="406.8653347947321" cy="435" r="6.614080761809006" fill="#ff0000" fill-opacity="1"/><circle cx="415.5255888325765" cy="420" r="8.460871035376396" fill="#00ff00" fill-opacity="1"/><circle cx="86.43593539448983" cy="510" r="4.992381739463234" fill="#0000ff" fill-opacity="1"/><circle cx="86.43593539448983" cy="540" r="7.101408311032397" fill="#0000ff" fill-opacity="1"/><circle cx="103.7564434701786" cy="540" r="6.30842852683891" fill="#00ff00" fill-opacity="1"/><circle cx="121.07695154586737" cy="540" r="4.734883405722018" fill="#ff0000" fill-opacity="1"/><circle cx="138.39745962155615" cy="540" r="5.681748074995779" fill="#0000ff" fill-opacity="1"/><circle cx="155.71796769724492" cy="540" r="6.516087634826125" fill="#00ff00" fill-opacity="1"/><circle cx="173.03847577293368" cy="540" r="6.110961484942394" fill="#ff0000" fill-opacity="1"/><circle cx="190.35898384862247" cy="540" r="5.38342605294334" fill="#0000ff" fill-opacity="1"/><circle cx="207.67949192431124" cy="540" r="6.275543904982012" fill="#00ff00" fill-opacity="1"/><circle cx="225" cy="540" r="7.232728379381385" fill="#ff0000" fill-opacity="1"/><circle cx="242.32050807568876" cy="540" r="6.6039278074587475" fill="#0000ff" fill-opacity="1"/><circle cx="259.6410161513775" cy="540" r="6.30842852683891" fill="#00ff00" fill-opacity="1"/><circle cx="276.9615242270663" cy="540" r="5.913102278618755" fill="#ff0000" fill-opacity="1"/><circle cx="294.28203230275506" cy="540" r="5.416622979615264" fill="#0000ff" fill-opacity="1"/><circle cx="311.60254037844385" cy="540" r="7.265198486693198" fill="#00ff00" fill-opacity="1"/><circle cx="328.92304845413264" cy="540" r="6.30842852683891" fill="#ff0000" fill-opacity="1"/><circle cx="346.2435565298214" cy="540" r="5.946106752003503" fill="#0000ff" fill-opacity="1"/><circle cx="363.56406460551017" cy="540" r="5.53091856421603" fill="#00ff00" fill-opacity="1"/><circle cx="372.22431864335454" cy="525" r="2.769316000622425" fill="#0000ff" fill-opacity="1"/><circle cx="380.88457268119896" cy="510" r="2.941941701056111" fill="#ff0000" fill-opacity="1"/><circle cx="389.54482671904333" cy="495" r="4.683147885111648" fill="#00ff00" fill-opacity="1"/><circle cx="398.2050807568877" cy="480" r="5.563922850140218" fill="#0000ff" fill-opacity="1"/><circle cx="406.8653347947321" cy="465" r="6.341302694126194" fill="#ff0000" fill-opacity="1"/><circle cx="415.5255888325765" cy="450" r="7.751235956541145" fill="#00ff00" fill-opacity="1"/><circle cx="424.18584287042086" cy="435" r="4.442200894706061" fill="#0000ff" fill-opacity="1"/><circle cx="95.09618943233423" cy="555" r="6.2543301069381" fill="#ff0000" fill-opacity="1"/><circle cx="112.41669750802299" cy="555" r="4.967880656007349" fill="#0000ff" fill-opacity="1"/><circle cx="129.73720558371176" cy="555" r="5.332631219252145" fill="#00ff00" fill-opacity="1"/><circle cx="147.05771365940052" cy="555" r="6.188787260223412" fill="#ff0000" fill-opacity="1"/><circle cx="164.3782217350893" cy="555" r="5.416622979615264" fill="#0000ff" fill-opacity="1"/><circle cx="181.69872981077808" cy="555" r="5.780969918715962" fill="#00ff00" fill-opacity="1"/><circle cx="199.01923788646684" cy="555" r="6.275543904982012" fill="#ff0000" fill-opacity="1"/><circle cx="216.3397459621556" cy="555" r="6.548761874551542" fill="#0000ff" fill-opacity="1"/><circle cx="233.6602540378444" cy="555" r="6.711986037151492" fill="#00ff00" fill-opacity="1"/><circle cx="250.98076211353316" cy="555" r="6.767745890793529" fill="#ff0000" fill-opacity="1"/><circle cx="268.3012701892219" cy="555" r="6.176826604666142" fill="#0000ff" fill-opacity="1"/><circle cx="285.6217782649107" cy="555" r="6.209743015563723" fill="#00ff00" fill-opacity="1"/><circle cx="302.9422863405995" cy="555" r="6.143899452489372" fill="#ff0000" fill-opacity="1"/><circle cx="320.2627944162882" cy="555" r="6.155999933290135" fill="#0000ff" fill-opacity="1"/><circle cx="337.583302491977" cy="555" r="6.70224775160707" fill="#00ff00" fill-opacity="1"/><circle cx="354.9038105676658" cy="555" r="6.516087634826125" fill="#ff0000" fill-opacity="1"/><circle cx="372.22431864335454" cy="555" r="2.734694047479013" fill="#0000ff" fill-opacity="1"/><circle cx="380.88457268119896" cy="540" r="3.2166031063828178" fill="#ff0000" fill-opacity="1"/><circle cx="389.54482671904333" cy="525" r="5.761695626500543" fill="#00ff00" fill-opacity="1"/><circle cx="398.2050807568877" cy="510" r="4.4342189406158585" fill="#0000ff" fill-opacity="1"/><circle cx="406.8653347947321" cy="495" r="7.070246075791091" fill="#ff0000" fill-opacity="1"/><circle cx="415.5255888325765" cy="480" r="7.589430565470314" fill="#00ff00" fill-opacity="1"/><circle cx="424.18584287042086" cy="465" r="7.394992705404816" fill="#0000ff" fill-opacity="1"/><circle cx="432.8460969082653" cy="450" r="0.9577222112439665" fill="#ff0000" fill-opacity="1"/><circle cx="86.43593539448983" cy="570" r="7.127024241057491" fill="#0000ff" fill-opacity="1"/><circle cx="103.7564434701786" cy="570" r="6.581426229405123" fill="#00ff00" fill-opacity="1"/><circle cx="121.07695154586737" cy="570" r="4.883868604304067" fill="#ff0000" fill-opacity="1"/><circle cx="138.39745962155615" cy="570" r="5.596914936990767" fill="#0000ff" fill-opacity="1"/><circle cx="155.71796769724492" cy="570" r="5.714833871235971" fill="#00ff00" fill-opacity="1"/><circle cx="173.03847577293368" cy="570" r="4.850452509514247" fill="#ff0000" fill-opacity="1"/><circle cx="190.35898384862247" cy="570" r="6.176826604666142" fill="#0000ff" fill-opacity="1"/><circle cx="207.67949192431124" cy="570" r="7.094672141428913" fill="#00ff00" fill-opacity="1"/><circle cx="225" cy="570" r="7.420697301080487" fill="#ff0000" fill-opacity="1"/><circle cx="242.32050807568876" cy="570" r="6.996691277275762" fill="#0000ff" fill-opacity="1"/><circle cx="259.6410161513775" cy="570" r="6.865921550775069" fill="#00ff00" fill-opacity="1"/><circle cx="276.9615242270663" cy="570" r="6.450709247160561" fill="#ff0000" fill-opacity="1"/><circle cx="294.28203230275506" cy="570" r="5.23331478567553" fill="#0000ff" fill-opacity="1"/><circle cx="311.60254037844385" cy="570" r="7.61590066453207" fill="#00ff00" fill-opacity="1"/><circle cx="328.92304845413264" cy="570" r="5.913102278618755" fill="#ff0000" fill-opacity="1"/><circle cx="346.2435565298214" cy="570" r="6.242648758288587" fill="#0000ff" fill-opacity="1"/><circle cx="363.56406460551017" cy="570" r="7.200249554049153" fill="#00ff00" fill-opacity="1"/><circle cx="380.88457268119896" cy="570" r="3.727210215437528" fill="#ff0000" fill-opacity="1"/><circle cx="389.54482671904333" cy="555" r="5.332631219252145" fill="#00ff00" fill-opacity="1"/><circle cx="398.2050807568877" cy="540" r="5.017388092570072" fill="#0000ff" fill-opacity="1"/><circle cx="406.8653347947321" cy="525" r="7.200249554049153" fill="#ff0000" fill-opacity="1"/><circle cx="415.5255888325765" cy="510" r="7.362556986653914" fill="#00ff00" fill-opacity="1"/><circle cx="424.18584287042086" cy="495" r="7.388133882649462" fill="#0000ff" fill-opacity="1"/><circle cx="432.8460969082653" cy="480" r="7.8655483731951366" fill="#ff0000" fill-opacity="1"/><circle cx="77.77568135664544" cy="585" r="0.8965910062709481" fill="#00ff00" fill-opacity="1"/><circle cx="95.09618943233423" cy="585" r="6.352565922975478" fill="#ff0000" fill-opacity="1"/><circle cx="112.41669750802299" cy="585" r="5.1338793273372945" fill="#0000ff" fill-opacity="1"/><circle cx="129.73720558371176" cy="585" r="4.501144794442869" fill="#00ff00" fill-opacity="1"/><circle cx="147.05771365940052" cy="585" r="6.045052802331386" fill="#ff0000" fill-opacity="1"/><circle cx="164.3782217350893" cy="585" r="4.883868604304067" fill="#0000ff" fill-opacity="1"/><circle cx="181.69872981077808" cy="585" r="6.4070199415263325" fill="#00ff00" fill-opacity="1"/><circle cx="199.01923788646684" cy="585" r="6.800480592362623" fill="#ff0000" fill-opacity="1"/><circle cx="216.3397459621556" cy="585" r="7.265198486693198" fill="#0000ff" fill-opacity="1"/><circle cx="233.6602540378444" cy="585" r="7.062020929573547" fill="#00ff00" fill-opacity="1"/><circle cx="250.98076211353316" cy="585" r="7.843263569005528" fill="#ff0000" fill-opacity="1"/><circle cx="268.3012701892219" cy="585" r="5.398777498925732" fill="#0000ff" fill-opacity="1"/><circle cx="285.6217782649107" cy="585" r="6.833205793165557" fill="#00ff00" fill-opacity="1"/><circle cx="302.9422863405995" cy="585" r="5.615540486334097" fill="#ff0000" fill-opacity="1"/><circle cx="320.2627944162882" cy="585" r="7.1027602729607615" fill="#0000ff" fill-opacity="1"/><circle cx="337.583302491977" cy="585" r="6.341302694126194" fill="#00ff00" fill-opacity="1"/><circle cx="354.9038105676658" cy="585" r="6.711986037151492" fill="#ff0000" fill-opacity="1"/><circle cx="372.22431864335454" cy="585" r="4.064905575742876" fill="#0000ff" fill-opacity="1"/><circle cx="389.54482671904333" cy="585" r="4.467690049307614" fill="#00ff00" fill-opacity="1"/><circle cx="398.2050807568877" cy="570" r="5.7287631526987335" fill="#0000ff" fill-opacity="1"/><circle cx="406.8653347947321" cy="555" r="6.972649450320895" fill="#ff0000" fill-opacity="1"/><circle cx="415.5255888325765" cy="540" r="7.062020929573547" fill="#00ff00" fill-opacity="1"/><circle cx="424.18584287042086" cy="525" r="7.2251874444045265" fill="#0000ff" fill-opacity="1"/><circle cx="432.8460969082653" cy="510" r="7.880536091942166" fill="#ff0000" fill-opacity="1"/><circle cx="441.50635094610965" cy="495" r="1.8135590808662359" fill="#00ff00" fill-opacity="1"/><circle cx="86.43593539448983" cy="600" r="6.665954851061988" fill="#0000ff" fill-opacity="1"/><circle cx="103.7564434701786" cy="600" r="6.483403447027512" fill="#00ff00" fill-opacity="1"/><circle cx="121.07695154586737" cy="600" r="4.734883405722018" fill="#ff0000" fill-opacity="1"/><circle cx="138.39745962155615" cy="600" r="5.398777498925732" fill="#0000ff" fill-opacity="1"/><circle cx="155.71796769724492" cy="600" r="6.548761874551542" fill="#00ff00" fill-opacity="1"/><circle cx="173.03847577293368" cy="600" r="5.497901983786931" fill="#ff0000" fill-opacity="1"/><circle cx="190.35898384862247" cy="600" r="6.188787260223412" fill="#0000ff" fill-opacity="1"/><circle cx="207.67949192431124" cy="600" r="6.385290551182246" fill="#00ff00" fill-opacity="1"/><circle cx="225" cy="600" r="6.581426229405123" fill="#ff0000" fill-opacity="1"/><circle cx="242.32050807568876" cy="600" r="6.842392546277067" fill="#0000ff" fill-opacity="1"/><circle cx="259.6410161513775" cy="600" r="7.4922491732317535" fill="#00ff00" fill-opacity="1"/><circle cx="276.9615242270663" cy="600" r="5.761695626500543" fill="#ff0000" fill-opacity="1"/><circle cx="294.28203230275506" cy="600" r="6.385290551182246" fill="#0000ff" fill-opacity="1"/><circle cx="311.60254037844385" cy="600" r="6.352565922975478" fill="#00ff00" fill-opacity="1"/><circle cx="328.92304845413264" cy="600" r="6.972649450320895" fill="#ff0000" fill-opacity="1"/><circle cx="346.2435565298214" cy="600" r="5.893309820286071" fill="#0000ff" fill-opacity="1"/><circle cx="363.56406460551017" cy="600" r="7.200249554049153" fill="#00ff00" fill-opacity="1"/><circle cx="380.88457268119896" cy="600" r="2.769316000622425" fill="#ff0000" fill-opacity="1"/><circle cx="398.2050807568877" cy="600" r="5.959048670940771" fill="#0000ff" fill-opacity="1"/><circle cx="406.8653347947321" cy="585" r="6.505519108615082" fill="#ff0000" fill-opacity="1"/><circle cx="415.5255888325765" cy="570" r="6.833205793165557" fill="#00ff00" fill-opacity="1"/><circle cx="424.18584287042086" cy="555" r="7.070246075791091" fill="#0000ff" fill-opacity="1"/><circle cx="432.8460969082653" cy="540" r="8.171006965145112" fill="#ff0000" fill-opacity="1"/><circle cx="441.50635094610965" cy="525" r="7.62436982264565" fill="#00ff00" fill-opacity="1"/><circle cx="77.77568135664544" cy="615" r="0.9577222112439665" fill="#00ff00" fill-opacity="1"/><circle cx="95.09618943233423" cy="615" r="6.516087634826125" fill="#ff0000" fill-opacity="1"/><circle cx="112.41669750802299" cy="615" r="5.629894918763334" fill="#0000ff" fill-opacity="1"/><circle cx="129.73720558371176" cy="615" r="4.668178777341738" fill="#00ff00" fill-opacity="1"/><circle cx="147.05771365940052" cy="615" r="6.450709247160561" fill="#ff0000" fill-opacity="1"/><circle cx="164.3782217350893" cy="615" r="5.695818936069495" fill="#0000ff" fill-opacity="1"/><circle cx="181.69872981077808" cy="615" r="5.959048670940771" fill="#00ff00" fill-opacity="1"/><circle cx="199.01923788646684" cy="615" r="6.614080761809006" fill="#ff0000" fill-opacity="1"/><circle cx="216.3397459621556" cy="615" r="6.2543301069381" fill="#0000ff" fill-opacity="1"/><circle cx="233.6602540378444" cy="615" r="6.711986037151492" fill="#00ff00" fill-opacity="1"/><circle cx="250.98076211353316" cy="615" r="7.945139002452502" fill="#ff0000" fill-opacity="1"/><circle cx="268.3012701892219" cy="615" r="5.695818936069495" fill="#0000ff" fill-opacity="1"/><circle cx="285.6217782649107" cy="615" r="7.005190717034458" fill="#00ff00" fill-opacity="1"/><circle cx="302.9422863405995" cy="615" r="5.662862888049853" fill="#ff0000" fill-opacity="1"/><circle cx="320.2627944162882" cy="615" r="6.972649450320895" fill="#0000ff" fill-opacity="1"/><circle cx="337.583302491977" cy="615" r="6.7772082190740806" fill="#00ff00" fill-opacity="1"/><circle cx="354.9038105676658" cy="615" r="6.319831018477794" fill="#ff0000" fill-opacity="1"/><circle cx="372.22431864335454" cy="615" r="4.4342189406158585" fill="#0000ff" fill-opacity="1"/><circle cx="389.54482671904333" cy="615" r="4.400731298624059" fill="#00ff00" fill-opacity="1"/><circle cx="406.8653347947321" cy="615" r="6.548761874551542" fill="#ff0000" fill-opacity="1"/><circle cx="415.5255888325765" cy="600" r="6.646725533420311" fill="#00ff00" fill-opacity="1"/><circle cx="424.18584287042086" cy="585" r="6.833205793165557" fill="#0000ff" fill-opacity="1"/><circle cx="432.8460969082653" cy="570" r="7.908152275753811" fill="#ff0000" fill-opacity="1"/><circle cx="441.50635094610965" cy="555" r="7.2251874444045265" fill="#00ff00" fill-opacity="1"/><circle cx="450.166604983954" cy="540" r="3.097314385299639" fill="#0000ff" fill-opacity="1"/><circle cx="458.82685902179844" cy="525" r="1.0494190187034964" fill="#ff0000" fill-opacity="1"/><circle cx="424.18584287042086" cy="615" r="6.940099054292843" fill="#0000ff" fill-opacity="1"/><circle cx="432.8460969082653" cy="600" r="7.815901850710543" fill="#ff0000" fill-opacity="1"/><circle cx="441.50635094610965" cy="585" r="7.977428807640475" fill="#00ff00" fill-opacity="1"/><circle cx="450.166604983954" cy="570" r="6.024742890964536" fill="#0000ff" fill-opacity="1"/><circle cx="458.82685902179844" cy="555" r="7.628311175248841" fill="#ff0000" fill-opacity="1"/><circle cx="467.4871130596428" cy="540" r="3.097314385299639" fill="#00ff00" fill-opacity="1"/><circle cx="441.50635094610965" cy="615" r="8.138762877779616" fill="#00ff00" fill-opacity="1"/><circle cx="450.166604983954" cy="600" r="6.276137043896637" fill="#0000ff" fill-opacity="1"/><circle cx="458.82685902179844" cy="585" r="6.1351732619141295" fill="#ff0000" fill-opacity="1"/><circle cx="467.4871130596428" cy="570" r="6.581426229405123" fill="#00ff00" fill-opacity="1"/><circle cx="458.82685902179844" cy="615" r="6.276137043896637" fill="#ff0000" fill-opacity="1"/><circle cx="467.4871130596428" cy="600" r="6.276137043896637" fill="#00ff00" fill-opacity="1"/></g></svg>