<?xml version="1.0" encoding="UTF-8" standalone="no"?>
<svg version="1.1" xmlns="http://www.w3.org/2000/svg" width="450px" height="600px" x="0" y="0" viewBox="0 0 450 600"><g><rect fill="#ffffff" x="0" y="0" width="450" height="600"/></g><g><circle cx="149.10306714655923" cy="471.2882237150012" r="37.84169472266941" fill="none" stroke="#6edcff" stroke-opacity="0.85"/><circle cx="208.19153232729172" cy="481.707114375017" r="37.664586836323714" fill="none" stroke="#6edcff" stroke-opacity="0.85"/><circle cx="314.8702780800427" cy="394.99122653074755" r="37.5480286791862" fill="none" stroke="#6edcff" stroke-opacity="0.85"/><circle cx="294.8815835262234" cy="162.82651756309653" r="37.53263299899535" fill="none" stroke="#3c3c3c" stroke-opacity="0.85"/><circle cx="119.55883455619299" cy="466.07877838499326" r="37.48174661490852" fill="none" stroke="#6edcff" stroke-opacity="0.85"/><circle cx="220.75474502744734" cy="237.69448009832502" r="37.11048328248523" fill="none" stroke="#f75757" stroke-opacity="0.85"/><circle cx="159.3636714463293" cy="499.4790023385784" r="37.094454562740964" fill="none" stroke="#6edcff" stroke-opacity="0.85"/><circle cx="178.64729973692548" cy="476.4976690450091" r="37.03739699377667" fill="none" stroke="#6edcff" stroke-opacity="0.85"/><circle cx="138.84246284678918" cy="443.09744509142394" r="36.923267967967725" fill="none" stroke="#6edcff" stroke-opacity="0.85"/><circle cx="394.4799518603153" cy="461.7916744379179" r="36.77513973289237" fill="none" stroke="#6edcff" stroke-opacity="0.85"/><circle cx="415.0011604598554" cy="518.1732316850724" r="36.76158519667243" fill="none" stroke="#6edcff" stroke-opacity="0.85"/><circle cx="316.10785838898664" cy="474.3541170714714" r="36.709454512492684" fill="none" stroke="#6edcff" stroke-opacity="0.85"/><circle cx="403.5029758511414" cy="410.6195625207713" r="36.61951389790011" fill="none" stroke="#6edcff" stroke-opacity="0.85"/><circle cx="364.935719269949" cy="456.58222910791" r="36.605975526979535" fill="none" stroke="#6edcff" stroke-opacity="0.85"/><circle cx="219.5171647185034" cy="158.33158955760118" r="36.59413631289976" fill="none" stroke="#f75757" stroke-opacity="0.85"/><circle cx="128.58185854701912" cy="414.90666646784666" r="36.496278274177975" fill="none" stroke="#6edcff" stroke-opacity="0.85"/><circle cx="257.01939320825414" cy="463.9352264114556" r="36.4211079884986" fill="none" stroke="#6edcff" stroke-opacity="0.85"/><circle cx="168.38669543715542" cy="448.30689042143183" r="36.20294658806066" fill="none" stroke="#6edcff" stroke-opacity="0.85"/><circle cx="206.24888575512463" cy="147.1981815730728" r="36.01529701379133" fill="none" stroke="#3c3c3c" stroke-opacity="0.85"/><circle cx="301.6019991166639" cy="383.85781854621916" r="35.56889098979003" fill="none" stroke="#f75757" stroke-opacity="0.85"/><circle cx="317.34543869793055" cy="553.7170076121953" r="35.508645375291955" fill="none" stroke="#6edcff" stroke-opacity="0.85"/><circle cx="346.88967128829677" cy="558.9264529422032" r="35.11406593489434" fill="none" stroke="#6edcff" stroke-opacity="0.85"/><circle cx="190.1454843456395" cy="584.0513382093102" r="35.05498283917799" fill="none" stroke="#6edcff" stroke-opacity="0.85"/><circle cx="255.07674663608705" cy="129.42629360951136" r="34.99606692791999" fill="none" stroke="#3c3c3c" stroke-opacity="0.85"/><circle cx="405.97813646902927" cy="569.345343602219" r="34.94859654695766" fill="none" stroke="#6edcff" stroke-opacity="0.85"/><circle cx="198.46344207324248" cy="277.7331840309432" r="34.91640287304952" fill="none" stroke="#3c3c3c" stroke-opacity="0.85"/><circle cx="237.73576491765795" cy="486.91655970502495" r="34.91318296420469" fill="none" stroke="#6edcff" stroke-opacity="0.85"/><circle cx="267.27999750802417" cy="492.12600503503285" r="34.90705717976821" fill="none" stroke="#6edcff" stroke-opacity="0.85"/><circle cx="384.2193475605452" cy="433.6008958143407" r="34.849816645766424" fill="none" stroke="#6edcff" stroke-opacity="0.85"/><circle cx="109.29823025642293" cy="437.88799976141604" r="34.83327913610264" fill="none" stroke="#6edcff" stroke-opacity="0.85"/><circle cx="357.15027558806685" cy="587.1172315657805" r="34.768069265837326" fill="none" stroke="#6edcff" stroke-opacity="0.85"/><circle cx="92.48976258371465" cy="619.595114136433" r="34.291001716607255" fill="none" stroke="#6edcff" stroke-opacity="0.85"/><circle cx="188.90790403669553" cy="504.6884476685864" r="34.147017888414574" fill="none" stroke="#6edcff" stroke-opacity="0.85"/><circle cx="169.62427574609939" cy="527.6697809621558" r="34.08984606144027" fill="none" stroke="#6edcff" stroke-opacity="0.85"/><circle cx="200.40608864540957" cy="612.2421168328874" r="33.92280505862952" fill="none" stroke="#6edcff" stroke-opacity="0.85"/><circle cx="209.42911263623566" cy="561.0700049157408" r="33.898012003228175" fill="none" stroke="#6edcff" stroke-opacity="0.85"/><circle cx="337.86664729747065" cy="610.0985648593498" r="33.80040812531779" fill="none" stroke="#6edcff" stroke-opacity="0.85"/><circle cx="268.5175778169681" cy="571.4888955757567" r="33.76507862282336" fill="none" stroke="#6edcff" stroke-opacity="0.85"/><circle cx="177.40971942798154" cy="397.13477850428524" r="33.75973128540555" fill="none" stroke="#6edcff" stroke-opacity="0.85"/><circle cx="207.4864660640686" cy="226.56107211379663" r="33.53669586656785" fill="none" stroke="#3c3c3c" stroke-opacity="0.85"/><circle cx="379.4415785422717" cy="547.0785276331623" r="33.49122921160655" fill="none" stroke="#3c3c3c" stroke-opacity="0.85"/><circle cx="416.23874076879935" cy="597.5361222257962" r="33.4837097865897" fill="none" stroke="#6edcff" stroke-opacity="0.85"/><circle cx="235.79311834549088" cy="152.40762690308068" r="33.38683515194621" fill="none" stroke="#3c3c3c" stroke-opacity="0.85"/><circle cx="305.1421878259934" cy="191.01729618667378" r="33.378740753832034" fill="none" stroke="#3c3c3c" stroke-opacity="0.85"/><circle cx="211.73172103662122" cy="288.8665920154716" r="33.345940828655536" fill="none" stroke="#f75757" stroke-opacity="0.85"/><circle cx="367.4108798878369" cy="615.3080101893577" r="33.215787571756636" fill="none" stroke="#6edcff" stroke-opacity="0.85"/><circle cx="369.1809742425017" cy="518.8877490095849" r="33.176984862682026" fill="none" stroke="#3c3c3c" stroke-opacity="0.85"/><circle cx="336.62906698852674" cy="530.7356743186259" r="33.05135800223725" fill="none" stroke="#6edcff" stroke-opacity="0.85"/><circle cx="229.9503212357758" cy="617.4515621628954" r="32.89057357556664" fill="none" stroke="#6edcff" stroke-opacity="0.85"/><circle cx="141.31762346467707" cy="601.8232261728717" r="32.825166248373" fill="none" stroke="#6edcff" stroke-opacity="0.85"/><circle cx="129.81943885596306" cy="494.26955700857053" r="32.64134030109766" fill="none" stroke="#6edcff" stroke-opacity="0.85"/><circle cx="278.6056298992359" cy="168.750480217617" r="32.56480756495039" fill="none" stroke="#f75757" stroke-opacity="0.85"/><circle cx="299.126838498776" cy="225.13203746477149" r="32.56139563025877" fill="none" stroke="#f75757" stroke-opacity="0.85"/><circle cx="186.96525746452846" cy="170.1795148666421" r="32.52940870847623" fill="none" stroke="#3c3c3c" stroke-opacity="0.85"/><circle cx="101.51278657454075" cy="568.4230022192864" r="32.434300111953924" fill="none" stroke="#6edcff" stroke-opacity="0.85"/><circle cx="326.36846268875667" cy="502.5448956950487" r="32.41979897652682" fill="none" stroke="#6edcff" stroke-opacity="0.85"/><circle cx="307.0848343981605" cy="525.526228988618" r="32.15845943088031" fill="none" stroke="#6edcff" stroke-opacity="0.85"/><circle cx="275.0654411899064" cy="361.5910025771624" r="32.15280590703426" fill="none" stroke="#6edcff" stroke-opacity="0.85"/><circle cx="91.25218227477069" cy="540.2322235957092" r="32.05965488131326" fill="none" stroke="#6edcff" stroke-opacity="0.85"/><circle cx="209.25656041873333" cy="130.14081093402393" r="32.025950441380814" fill="none" stroke="#f75757" stroke-opacity="0.85"/><circle cx="268.3450255994658" cy="140.55970159403972" r="31.935360501902657" fill="none" stroke="#f75757" stroke-opacity="0.85"/><circle cx="327.6060429977006" cy="581.9077862357725" r="31.892235824093643" fill="none" stroke="#6edcff" stroke-opacity="0.85"/><circle cx="183.42506875519894" cy="363.0200372261875" r="31.876939099546146" fill="none" stroke="#f75757" stroke-opacity="0.85"/><circle cx="236.498184608714" cy="407.5536691643011" r="31.816062854361" fill="none" stroke="#6edcff" stroke-opacity="0.85"/><circle cx="256.314326945031" cy="208.7891841502352" r="31.657760647179924" fill="none" stroke="#3c3c3c" stroke-opacity="0.85"/><circle cx="217.21455631811784" cy="430.5350024578704" r="31.5503439612202" fill="none" stroke="#6edcff" stroke-opacity="0.85"/><circle cx="138.13739658356604" cy="187.95140283020356" r="31.538558453109726" fill="none" stroke="#3c3c3c" stroke-opacity="0.85"/><circle cx="373.4262292150543" cy="581.19326891126" r="31.44597833748269" fill="none" stroke="#f75757" stroke-opacity="0.85"/><circle cx="189.97293212813716" cy="153.12214422759328" r="31.415690218580426" fill="none" stroke="#f75757" stroke-opacity="0.85"/><circle cx="150.3406474555032" cy="550.651114255725" r="31.377732051390762" fill="none" stroke="#6edcff" stroke-opacity="0.85"/><circle cx="140.0800431557331" cy="522.4603356321478" r="31.36633057292588" fill="none" stroke="#6edcff" stroke-opacity="0.85"/><circle cx="404.74055616008536" cy="489.98245306149516" r="31.33689556687281" fill="none" stroke="#6edcff" stroke-opacity="0.85"/><circle cx="255.78181289931018" cy="384.57233587073176" r="31.287972917549677" fill="none" stroke="#6edcff" stroke-opacity="0.85"/><circle cx="258.25697351719805" cy="543.2981169521795" r="31.108693301392325" fill="none" stroke="#6edcff" stroke-opacity="0.85"/><circle cx="465.06660164976176" cy="579.7642342622348" r="30.92974459884884" fill="none" stroke="#6edcff" stroke-opacity="0.85"/><circle cx="206.95395201834776" cy="402.3442238342932" r="30.903543021898177" fill="none" stroke="#6edcff" stroke-opacity="0.85"/><circle cx="218.98465067278258" cy="334.1147412780977" r="30.832054565658904" fill="none" stroke="#3c3c3c" stroke-opacity="0.85"/><circle cx="197.22586176429851" cy="198.37029349021938" r="30.82725726811496" fill="none" stroke="#3c3c3c" stroke-opacity="0.85"/><circle cx="293.1114891715586" cy="259.24677874286925" r="30.824186977066617" fill="none" stroke="#6edcff" stroke-opacity="0.85"/><circle cx="383.68683351482434" cy="609.3840475348372" r="30.643203207791554" fill="none" stroke="#f75757" stroke-opacity="0.85"/><circle cx="177.94223347370234" cy="221.35162678378873" r="30.532243685736567" fill="none" stroke="#3c3c3c" stroke-opacity="0.85"/><circle cx="278.7781821167382" cy="599.6796741993339" r="30.47656396144995" fill="none" stroke="#6edcff" stroke-opacity="0.85"/><circle cx="157.4210248741622" cy="164.9700695366342" r="30.30603545898835" fill="none" stroke="#3c3c3c" stroke-opacity="0.85"/><circle cx="111.77339087431082" cy="596.6137808428637" r="30.147752118414612" fill="none" stroke="#6edcff" stroke-opacity="0.85"/><circle cx="247.99636921742803" cy="515.1073383286022" r="30.122927642192696" fill="none" stroke="#6edcff" stroke-opacity="0.85"/><circle cx="158.12609113738534" cy="420.1161117978546" r="30.09553198361509" fill="none" stroke="#6edcff" stroke-opacity="0.85"/><circle cx="237.03069865443481" cy="231.77051744380455" r="30.02993140833144" fill="none" stroke="#3c3c3c" stroke-opacity="0.85"/><circle cx="308.32241470710443" cy="604.8891195293419" r="30.028818757695973" fill="none" stroke="#6edcff" stroke-opacity="0.85"/><circle cx="263.56725658119234" cy="254.0373334128613" r="29.718225350756647" fill="none" stroke="#6edcff" stroke-opacity="0.85"/><circle cx="170.689303837541" cy="176.10347752116257" r="29.636489029289223" fill="none" stroke="#f75757" stroke-opacity="0.85"/><circle cx="355.9126952791229" cy="507.7543410250566" r="29.54918216156599" fill="none" stroke="#6edcff" stroke-opacity="0.85"/><circle cx="182.18748844625497" cy="283.6571466854637" r="29.36336944511949" fill="none" stroke="#f75757" stroke-opacity="0.85"/><circle cx="269.5826059084098" cy="219.9225921347636" r="29.344337015179825" fill="none" stroke="#f75757" stroke-opacity="0.85"/><circle cx="251.53655792675752" cy="322.2668159690568" r="29.205417053029105" fill="none" stroke="#f75757" stroke-opacity="0.85"/><circle cx="100.27520626559681" cy="489.06011167856263" r="29.15824958891026" fill="none" stroke="#6edcff" stroke-opacity="0.85"/><circle cx="382.44925320588044" cy="530.0211569941134" r="29.12957295159278" fill="none" stroke="#f75757" stroke-opacity="0.85"/><circle cx="199.7010223821864" cy="357.0960745716671" r="29.084726640230503" fill="none" stroke="#3c3c3c" stroke-opacity="0.85"/><circle cx="345.65209097935286" cy="479.5635624014793" r="29.06509320434264" fill="none" stroke="#6edcff" stroke-opacity="0.85"/><circle cx="277.54060180779425" cy="520.3167836586101" r="29.057764391792904" fill="none" stroke="#6edcff" stroke-opacity="0.85"/><circle cx="180.41739409159024" cy="380.0774078652364" r="29.014851527061193" fill="none" stroke="#3c3c3c" stroke-opacity="0.85"/><circle cx="141.14507124717474" cy="170.8940321911547" r="29.003878597803883" fill="none" stroke="#f75757" stroke-opacity="0.85"/><circle cx="232.25292963616135" cy="345.2481492626261" r="28.880683720715833" fill="none" stroke="#f75757" stroke-opacity="0.85"/><circle cx="202.7086970457951" cy="340.0387039326182" r="28.43356115777678" fill="none" stroke="#f75757" stroke-opacity="0.85"/><circle cx="304.6096737802726" cy="366.80044790717034" r="28.40253383263328" fill="none" stroke="#6edcff" stroke-opacity="0.85"/><circle cx="226.77009435466476" cy="203.5797388202273" r="28.40076980330865" fill="none" stroke="#3c3c3c" stroke-opacity="0.85"/><circle cx="180.94990813731104" cy="204.29425614473985" r="28.31541652072803" fill="none" stroke="#f75757" stroke-opacity="0.85"/><circle cx="212.96930134556519" cy="368.2294825561954" r="28.108860560052044" fill="none" stroke="#f75757" stroke-opacity="0.85"/><circle cx="110.53581056536687" cy="517.2508903021399" r="28.073649781285454" fill="none" stroke="#6edcff" stroke-opacity="0.85"/><circle cx="185.1951631098637" cy="266.59977604641483" r="28.011744540791614" fill="none" stroke="#6edcff" stroke-opacity="0.85"/><circle cx="281.0807905171238" cy="327.4762612990647" r="27.902573198004564" fill="none" stroke="#f75757" stroke-opacity="0.85"/><circle cx="170.8618560550433" cy="607.0326715028796" r="27.897364816628503" fill="none" stroke="#6edcff" stroke-opacity="0.85"/><circle cx="298.0618104073344" cy="576.6983409057646" r="27.52301056869509" fill="none" stroke="#6edcff" stroke-opacity="0.85"/><circle cx="234.02302399082612" cy="248.8278880828534" r="27.49529053341363" fill="none" stroke="#6edcff" stroke-opacity="0.85"/><circle cx="229.24525497255266" cy="362.305519901675" r="27.304117856896237" fill="none" stroke="#3c3c3c" stroke-opacity="0.85"/><circle cx="287.8012061075643" cy="548.5075622821873" r="27.237404140931286" fill="none" stroke="#6edcff" stroke-opacity="0.85"/><circle cx="195.45576740963375" cy="294.7905546699921" r="27.16053392749932" fill="none" stroke="#6edcff" stroke-opacity="0.85"/><circle cx="184.6626490641429" cy="442.3829277669114" r="27.07224497317208" fill="none" stroke="#f75757" stroke-opacity="0.85"/><circle cx="179.8848800458694" cy="555.860559585733" r="27.07174623022147" fill="none" stroke="#6edcff" stroke-opacity="0.85"/><circle cx="208.72404637301253" cy="305.9239626545205" r="27.071358210085553" fill="none" stroke="#3c3c3c" stroke-opacity="0.85"/><circle cx="194.21818710068982" cy="215.42766412926824" r="26.90933417476595" fill="none" stroke="#6edcff" stroke-opacity="0.85"/><circle cx="388.46460253309783" cy="495.90641571601566" r="26.890897054668628" fill="none" stroke="#3c3c3c" stroke-opacity="0.85"/><circle cx="392.7098575056505" cy="558.2119356176906" r="26.818306553545384" fill="none" stroke="#f75757" stroke-opacity="0.85"/><circle cx="199.1685083364656" cy="532.8792262921636" r="26.808060184769616" fill="none" stroke="#6edcff" stroke-opacity="0.85"/><circle cx="160.60125175527324" cy="578.8418928793023" r="26.683579106519108" fill="none" stroke="#6edcff" stroke-opacity="0.85"/><circle cx="227.4751606178879" cy="458.7257810814477" r="26.679686960083647" fill="none" stroke="#6edcff" stroke-opacity="0.85"/><circle cx="123.80408952874566" cy="528.3842982866684" r="26.54586580007526" fill="none" stroke="#3c3c3c" stroke-opacity="0.85"/><circle cx="209.9616266819565" cy="385.2868531952443" r="26.16277362729289" fill="none" stroke="#3c3c3c" stroke-opacity="0.85"/><circle cx="238.26827896337878" cy="311.1334079845284" r="26.064240032289646" fill="none" stroke="#3c3c3c" stroke-opacity="0.85"/><circle cx="120.79641486513694" cy="545.4416689257171" r="26.041782472163547" fill="none" stroke="#6edcff" stroke-opacity="0.85"/><circle cx="372.1886489061104" cy="501.8303783705361" r="25.93551580993228" fill="none" stroke="#f75757" stroke-opacity="0.85"/><circle cx="294.3490694805025" cy="338.60966928359306" r="25.650546878972765" fill="none" stroke="#6edcff" stroke-opacity="0.85"/><circle cx="285.3260454896764" cy="389.78178120073966" r="25.541448697489738" fill="none" stroke="#6edcff" stroke-opacity="0.85"/><circle cx="264.8048368901363" cy="333.40022395358517" r="25.47012437937888" fill="none" stroke="#6edcff" stroke-opacity="0.85"/><circle cx="389.7021828420418" cy="575.2693062567396" r="25.437947470791904" fill="none" stroke="#3c3c3c" stroke-opacity="0.85"/><circle cx="248.52888326314883" cy="339.32418660810566" r="25.280758737382886" fill="none" stroke="#3c3c3c" stroke-opacity="0.85"/><circle cx="375.1963235697191" cy="484.77300773148727" r="24.949213867891125" fill="none" stroke="#6edcff" stroke-opacity="0.85"/><circle cx="398.7252068328679" cy="524.0971943395929" r="24.911956479015338" fill="none" stroke="#3c3c3c" stroke-opacity="0.85"/><circle cx="192.44809274602505" cy="311.84792530904093" r="24.901283249294195" fill="none" stroke="#f75757" stroke-opacity="0.85"/><circle cx="191.2105124370811" cy="232.48503476831712" r="24.653984814780248" fill="none" stroke="#f75757" stroke-opacity="0.85"/><circle cx="253.3066522814223" cy="225.84655478928408" r="24.578643553054714" fill="none" stroke="#6edcff" stroke-opacity="0.85"/><circle cx="179.1798137826463" cy="300.71451732451254" r="24.503927693372443" fill="none" stroke="#3c3c3c" stroke-opacity="0.85"/><circle cx="128.0493445012983" cy="590.6898181883432" r="24.462306739829913" fill="none" stroke="#f75757" stroke-opacity="0.85"/><circle cx="225.5325140457208" cy="124.21684827950344" r="24.309112439123144" fill="none" stroke="#3c3c3c" stroke-opacity="0.85"/><circle cx="125.04166983768958" cy="607.7471888273922" r="24.123423459731306" fill="none" stroke="#3c3c3c" stroke-opacity="0.85"/><circle cx="176.70465316475838" cy="141.98873624306486" r="24.110593848687373" fill="none" stroke="#3c3c3c" stroke-opacity="0.85"/><circle cx="241.80846767270828" cy="118.29288562498297" r="24.068349592034103" fill="none" stroke="#6edcff" stroke-opacity="0.85"/><circle cx="242.5135339359314" cy="373.4389278862034" r="23.922063134191617" fill="none" stroke="#f75757" stroke-opacity="0.85"/><circle cx="241.27595362698747" cy="294.0760373454795" r="23.770502773929067" fill="none" stroke="#f75757" stroke-opacity="0.85"/><circle cx="270.8201862173537" cy="299.28548267548746" r="23.679425451288093" fill="none" stroke="#f75757" stroke-opacity="0.85"/><circle cx="245.52120859954013" cy="356.3815572471545" r="23.65445442771925" fill="none" stroke="#6edcff" stroke-opacity="0.85"/><circle cx="188.2028377734724" cy="249.54240540736598" r="23.5563565371777" fill="none" stroke="#3c3c3c" stroke-opacity="0.85"/><circle cx="273.8278608809624" cy="282.2281120364386" r="23.544369765497166" fill="none" stroke="#6edcff" stroke-opacity="0.85"/><circle cx="193.685673054969" cy="391.2108158497648" r="23.39157399945262" fill="none" stroke="#f75757" stroke-opacity="0.85"/><circle cx="391.47227719670656" cy="478.8490450769668" r="23.25411076618245" fill="none" stroke="#f75757" stroke-opacity="0.85"/><circle cx="173.6969785011497" cy="159.04610688211375" r="23.20070803543323" fill="none" stroke="#6edcff" stroke-opacity="0.85"/><circle cx="131.057019164907" cy="573.6324475492944" r="23.15941173479759" fill="none" stroke="#6edcff" stroke-opacity="0.85"/><circle cx="244.28362829059617" cy="277.0186667064307" r="23.10486682772924" fill="none" stroke="#6edcff" stroke-opacity="0.85"/><circle cx="117.78874020152823" cy="562.499039564766" r="23.10272040518317" fill="none" stroke="#f75757" stroke-opacity="0.85"/><circle cx="257.55190725397495" cy="288.15207469095907" r="23.069259872359282" fill="none" stroke="#3c3c3c" stroke-opacity="0.85"/><circle cx="160.4286995377709" cy="147.91269889758536" r="23.059271579153776" fill="none" stroke="#f75757" stroke-opacity="0.85"/><circle cx="358.9203699427316" cy="490.6969703860077" r="23.01819210058595" fill="none" stroke="#3c3c3c" stroke-opacity="0.85"/><circle cx="222.5248393821121" cy="141.27421891855232" r="22.905314994218763" fill="none" stroke="#6edcff" stroke-opacity="0.85"/><circle cx="114.78106553791952" cy="579.556410203815" r="22.901611571595033" fill="none" stroke="#3c3c3c" stroke-opacity="0.85"/><circle cx="226.23758030894393" cy="379.3628905407238" r="22.74122623830052" fill="none" stroke="#6edcff" stroke-opacity="0.85"/><circle cx="238.80079300909958" cy="135.35025626403186" r="22.66179636096014" fill="none" stroke="#f75757" stroke-opacity="0.85"/><circle cx="267.812511553745" cy="316.3428533145363" r="22.629030773965116" fill="none" stroke="#3c3c3c" stroke-opacity="0.85"/><circle cx="113.54348522897561" cy="500.193519663091" r="22.61635294255624" fill="none" stroke="#3c3c3c" stroke-opacity="0.85"/><circle cx="176.8772053822607" cy="572.9179302247818" r="22.46702157912824" fill="none" stroke="#f75757" stroke-opacity="0.85"/><circle cx="186.43274341880766" cy="345.9626665871387" r="22.438094068311333" fill="none" stroke="#6edcff" stroke-opacity="0.85"/><circle cx="214.73939570022995" cy="271.8092213764227" r="22.375988279926137" fill="none" stroke="#6edcff" stroke-opacity="0.85"/><circle cx="171.39437010076412" cy="431.249519782383" r="22.183715872381143" fill="none" stroke="#3c3c3c" stroke-opacity="0.85"/><circle cx="167.14911512821146" cy="368.943999880708" r="22.055811076285053" fill="none" stroke="#6edcff" stroke-opacity="0.85"/><circle cx="164.14144046460277" cy="386.00137051975685" r="21.91614522092684" fill="none" stroke="#f75757" stroke-opacity="0.85"/><circle cx="282.85088487178854" cy="231.05600011929198" r="21.864369067880997" fill="none" stroke="#6edcff" stroke-opacity="0.85"/><circle cx="386.6945081784331" cy="592.3266768957883" r="21.727570786157695" fill="none" stroke="#6edcff" stroke-opacity="0.85"/><circle cx="366.17329957889297" cy="535.9451196486339" r="21.691409391632664" fill="none" stroke="#6edcff" stroke-opacity="0.85"/><circle cx="258.7894875629189" cy="367.5149652316829" r="21.08445929630403" fill="none" stroke="#3c3c3c" stroke-opacity="0.85"/><circle cx="261.7971622265276" cy="350.45759459263405" r="20.831184976466584" fill="none" stroke="#f75757" stroke-opacity="0.85"/><circle cx="395.71753216925924" cy="541.1545649786417" r="20.4478183829339" fill="none" stroke="#6edcff" stroke-opacity="0.85"/><circle cx="107.52813590175816" cy="534.3082609411888" r="20.415525993320834" fill="none" stroke="#f75757" stroke-opacity="0.85"/><circle cx="225" cy="300" r="20.400774479039427" fill="none" stroke="#6edcff" stroke-opacity="0.85"/><circle cx="221.9923253363913" cy="317.0573706390489" r="20.307208690693912" fill="none" stroke="#f75757" stroke-opacity="0.85"/><circle cx="401.73288149647664" cy="507.03982370054405" r="20.179697837551213" fill="none" stroke="#f75757" stroke-opacity="0.85"/><circle cx="197.93092802752165" cy="453.5163357514398" r="20.11827599231923" fill="none" stroke="#6edcff" stroke-opacity="0.85"/><circle cx="260.5595819175836" cy="271.0947040519102" r="20.085555637047005" fill="none" stroke="#f75757" stroke-opacity="0.85"/><circle cx="296.1191638351673" cy="242.18940810382037" r="19.862474117721835" fill="none" stroke="#3c3c3c" stroke-opacity="0.85"/><circle cx="239.5058592723227" cy="390.49629852525226" r="19.817626807920387" fill="none" stroke="#3c3c3c" stroke-opacity="0.85"/><circle cx="204.47879140045987" cy="243.6184427528455" r="19.7951429079906" fill="none" stroke="#6edcff" stroke-opacity="0.85"/><circle cx="231.01534932721742" cy="265.8852587219023" r="19.71150676813612" fill="none" stroke="#f75757" stroke-opacity="0.85"/><circle cx="240.74343958126667" cy="469.85918906597607" r="19.69237040596737" fill="none" stroke="#3c3c3c" stroke-opacity="0.85"/><circle cx="240.0383733180435" cy="214.7131468047557" r="19.53391520381319" fill="none" stroke="#f75757" stroke-opacity="0.85"/><circle cx="173.86953071865202" cy="589.9753008638306" r="19.46340607250508" fill="none" stroke="#3c3c3c" stroke-opacity="0.85"/><circle cx="370.4185545514456" cy="598.2506395503088" r="19.351330597836583" fill="none" stroke="#3c3c3c" stroke-opacity="0.85"/><circle cx="254.54423259036625" cy="305.2094453300079" r="19.262825831508458" fill="none" stroke="#6edcff" stroke-opacity="0.85"/><circle cx="168.91920948287623" cy="272.5237387009353" r="19.258360103347293" fill="none" stroke="#3c3c3c" stroke-opacity="0.85"/><circle cx="163.60892641888194" cy="561.7845222402534" r="19.145086665593155" fill="none" stroke="#3c3c3c" stroke-opacity="0.85"/><circle cx="116.55115989258428" cy="483.1361490240422" r="19.11054749564668" fill="none" stroke="#f75757" stroke-opacity="0.85"/><circle cx="276.83553554457114" cy="265.1707413973897" r="18.98066283793047" fill="none" stroke="#3c3c3c" stroke-opacity="0.85"/><circle cx="385.45692786948916" cy="512.9637863550645" r="18.902487850152962" fill="none" stroke="#6edcff" stroke-opacity="0.85"/><circle cx="203.94627735473907" cy="419.401594473342" r="18.59795593787734" fill="none" stroke="#f75757" stroke-opacity="0.85"/><circle cx="211.19920699090042" cy="464.6497437359682" r="18.594802884076692" fill="none" stroke="#3c3c3c" stroke-opacity="0.85"/><circle cx="281.6133045628446" cy="151.69310957856814" r="18.54178794932992" fill="none" stroke="#6edcff" stroke-opacity="0.85"/><circle cx="247.2913029542049" cy="259.9612960673818" r="18.53444181117985" fill="none" stroke="#3c3c3c" stroke-opacity="0.85"/><circle cx="205.71637170940383" cy="322.9813332935693" r="18.483639720298108" fill="none" stroke="#6edcff" stroke-opacity="0.85"/><circle cx="215.97697600917388" cy="351.1721119171466" r="18.423194638416277" fill="none" stroke="#6edcff" stroke-opacity="0.85"/><circle cx="266.57493124480106" cy="236.97996277381245" r="18.323794490189165" fill="none" stroke="#3c3c3c" stroke-opacity="0.85"/><circle cx="279.8432102081798" cy="248.11337075834086" r="18.22392443943965" fill="none" stroke="#f75757" stroke-opacity="0.85"/><circle cx="153.34832211911188" cy="533.5937436166762" r="18.176575003807333" fill="none" stroke="#3c3c3c" stroke-opacity="0.85"/><circle cx="138.30994880106834" cy="618.8805968119206" r="18.16177697454447" fill="none" stroke="#f75757" stroke-opacity="0.85"/><circle cx="210.4941407276773" cy="209.50370147474774" r="18.11698440310281" fill="none" stroke="#f75757" stroke-opacity="0.85"/><circle cx="182.89255470947813" cy="538.803188946684" r="17.957629290051464" fill="none" stroke="#3c3c3c" stroke-opacity="0.85"/><circle cx="275.7705074531295" cy="616.7370448383829" r="17.93558381308489" fill="none" stroke="#f75757" stroke-opacity="0.85"/><circle cx="174.93455881009362" cy="238.4089974228376" r="17.918208519971568" fill="none" stroke="#6edcff" stroke-opacity="0.85"/><circle cx="196.6933477185777" cy="374.1534452107159" r="17.73492398466173" fill="none" stroke="#6edcff" stroke-opacity="0.85"/><circle cx="265.50990315335946" cy="588.5462662148055" r="17.551144365946108" fill="none" stroke="#f75757" stroke-opacity="0.85"/><circle cx="171.92688414648492" cy="255.46636806188644" r="17.366472300166155" fill="none" stroke="#f75757" stroke-opacity="0.85"/><circle cx="301.0694850709431" cy="559.6409702667158" r="17.325620675487762" fill="none" stroke="#3c3c3c" stroke-opacity="0.85"/><circle cx="378.20399823332775" cy="467.7156370924384" r="17.28033192934554" fill="none" stroke="#3c3c3c" stroke-opacity="0.85"/><circle cx="308.1498624896021" cy="173.9599255476249" r="17.170466337607355" fill="none" stroke="#f75757" stroke-opacity="0.85"/><circle cx="290.808880771173" cy="531.4501916431385" r="17.126939323528962" fill="none" stroke="#3c3c3c" stroke-opacity="0.85"/><circle cx="230.4828352814966" cy="441.6684104423988" r="16.945437287253824" fill="none" stroke="#3c3c3c" stroke-opacity="0.85"/><circle cx="274.5329271441856" cy="537.374154297659" r="16.848183329344803" fill="none" stroke="#f75757" stroke-opacity="0.85"/><circle cx="135.12972191995732" cy="205.00877346925242" r="16.697944249721562" fill="none" stroke="#6edcff" stroke-opacity="0.85"/><circle cx="223.22990564533524" cy="396.4202611797727" r="16.6480135226859" fill="none" stroke="#f75757" stroke-opacity="0.85"/><circle cx="228.0076746636087" cy="282.9426293609511" r="16.609490906259552" fill="none" stroke="#3c3c3c" stroke-opacity="0.85"/><circle cx="185.90022937308683" cy="521.7458183076352" r="16.603823848288346" fill="none" stroke="#f75757" stroke-opacity="0.85"/><circle cx="363.1656249152843" cy="553.0024902876827" r="16.50202578591768" fill="none" stroke="#f75757" stroke-opacity="0.85"/><circle cx="205.18385766368303" cy="498.76448501406594" r="16.427401417502324" fill="none" stroke="#f75757" stroke-opacity="0.85"/><circle cx="243.04604798165224" cy="197.6557761657068" r="16.38024032825037" fill="none" stroke="#6edcff" stroke-opacity="0.85"/><circle cx="264.2723228444155" cy="509.18337567408173" r="16.191285214558818" fill="none" stroke="#f75757" stroke-opacity="0.85"/><circle cx="212.43678729984435" cy="544.0126342766921" r="16.184966649338" fill="none" stroke="#3c3c3c" stroke-opacity="0.85"/><circle cx="320.3531133615393" cy="536.6596369731465" r="16.09060690831933" fill="none" stroke="#3c3c3c" stroke-opacity="0.85"/><circle cx="184.13013501842207" cy="618.166079487408" r="16.08251754836458" fill="none" stroke="#3c3c3c" stroke-opacity="0.85"/><circle cx="330.61371766130935" cy="564.8504155967237" r="16.03098175953172" fill="none" stroke="#3c3c3c" stroke-opacity="0.85"/><circle cx="343.8819966246881" cy="575.983823581252" r="16.03098175953172" fill="none" stroke="#f75757" stroke-opacity="0.85"/><circle cx="220.22223098172654" cy="413.4776318188216" r="15.906109971834697" fill="none" stroke="#3c3c3c" stroke-opacity="0.85"/><circle cx="217.74707036383865" cy="254.75185073737387" r="15.874983745928553" fill="none" stroke="#3c3c3c" stroke-opacity="0.85"/><circle cx="164.67395451032357" cy="210.21821879926034" r="15.790666305781732" fill="none" stroke="#6edcff" stroke-opacity="0.85"/><circle cx="281.78585678034693" cy="582.6223035602851" r="15.749049304266734" fill="none" stroke="#3c3c3c" stroke-opacity="0.85"/><circle cx="260.0270678718628" cy="446.87785577240675" r="15.73826957397516" fill="none" stroke="#3c3c3c" stroke-opacity="0.85"/><circle cx="166.61660108249066" cy="544.7271516012046" r="15.707767959041123" fill="none" stroke="#f75757" stroke-opacity="0.85"/><circle cx="157.59357709166454" cy="595.8992635183512" r="15.707767959041123" fill="none" stroke="#f75757" stroke-opacity="0.85"/><circle cx="339.63674165213547" cy="513.6783036795771" r="15.7013360684156" fill="none" stroke="#3c3c3c" stroke-opacity="0.85"/><circle cx="134.06469382851571" cy="556.5750769102456" r="15.697826565526034" fill="none" stroke="#3c3c3c" stroke-opacity="0.85"/><circle cx="282.31837082606773" cy="406.83915183978854" r="15.643830478766331" fill="none" stroke="#f75757" stroke-opacity="0.85"/><circle cx="349.8973459519055" cy="541.8690823031543" r="15.63976220148064" fill="none" stroke="#3c3c3c" stroke-opacity="0.85"/><circle cx="147.33297279189446" cy="567.708484894774" r="15.599096218078651" fill="none" stroke="#f75757" stroke-opacity="0.85"/><circle cx="137.0723684921244" cy="539.5177062711966" r="15.562145420946361" fill="none" stroke="#f75757" stroke-opacity="0.85"/><circle cx="144.3252981282858" cy="584.7658555338228" r="15.560601393758239" fill="none" stroke="#3c3c3c" stroke-opacity="0.85"/><circle cx="94.25985693837941" cy="523.1748529566603" r="15.552047577279048" fill="none" stroke="#3c3c3c" stroke-opacity="0.85"/><circle cx="329.3761373523654" cy="485.4875250559998" r="15.487430772363856" fill="none" stroke="#3c3c3c" stroke-opacity="0.85"/><circle cx="293.8165554347817" cy="514.3928210040897" r="15.370126431123806" fill="none" stroke="#f75757" stroke-opacity="0.85"/><circle cx="448.7906480227743" cy="585.6881969167553" r="15.351886052437765" fill="none" stroke="#3c3c3c" stroke-opacity="0.85"/><circle cx="233.49050994510532" cy="424.61103980334997" r="15.24937565014564" fill="none" stroke="#f75757" stroke-opacity="0.85"/><circle cx="202.1761830000743" cy="515.8218556531148" r="15.207181000987909" fill="none" stroke="#3c3c3c" stroke-opacity="0.85"/><circle cx="104.52046123814947" cy="551.3656315802376" r="15.207101125028146" fill="none" stroke="#3c3c3c" stroke-opacity="0.85"/><circle cx="261.2646481808068" cy="526.2407463131306" r="15.112570575177639" fill="none" stroke="#3c3c3c" stroke-opacity="0.85"/><circle cx="295.0541357437257" cy="593.7557115448135" r="15.007868328521086" fill="none" stroke="#f75757" stroke-opacity="0.85"/><circle cx="103.28288092920555" cy="472.00274103951375" r="14.977373474312317" fill="none" stroke="#3c3c3c" stroke-opacity="0.85"/><circle cx="291.34139481689385" cy="355.66703992264195" r="14.976901190409912" fill="none" stroke="#f75757" stroke-opacity="0.85"/><circle cx="399.9627871418119" cy="603.4600848803168" r="14.937505990292022" fill="none" stroke="#3c3c3c" stroke-opacity="0.85"/><circle cx="98.50511191093204" cy="585.4803728583354" r="14.919962523896048" fill="none" stroke="#f75757" stroke-opacity="0.85"/><circle cx="340.8743219610794" cy="593.0411942203009" r="14.773791100515007" fill="none" stroke="#3c3c3c" stroke-opacity="0.85"/><circle cx="196.16083367285688" cy="549.9365969312125" r="14.769870548149134" fill="none" stroke="#f75757" stroke-opacity="0.85"/><circle cx="161.13376580099407" cy="403.05874115880573" r="14.72611441742077" fill="none" stroke="#3c3c3c" stroke-opacity="0.85"/><circle cx="251.00404388103672" cy="498.04996768955334" r="14.629427389359753" fill="none" stroke="#3c3c3c" stroke-opacity="0.85"/><circle cx="106.29055559281423" cy="454.9453704004649" r="14.415717019062132" fill="none" stroke="#f75757" stroke-opacity="0.85"/><circle cx="108.76571621070211" cy="613.6711514819126" r="14.310441760490166" fill="none" stroke="#f75757" stroke-opacity="0.85"/><circle cx="250.2989776178136" cy="242.9039254283329" r="14.29865319381497" fill="none" stroke="#f75757" stroke-opacity="0.85"/><circle cx="354.1426009244582" cy="604.1746022048293" r="14.221515352238825" fill="none" stroke="#f75757" stroke-opacity="0.85"/><circle cx="154.58590242805585" cy="612.9566341574" r="14.207324390982143" fill="none" stroke="#3c3c3c" stroke-opacity="0.85"/><circle cx="280.54827647140297" cy="503.25941301956124" r="14.168327594831117" fill="none" stroke="#3c3c3c" stroke-opacity="0.85"/><circle cx="126.81176419235435" cy="511.3269276476194" r="14.14195637645955" fill="none" stroke="#f75757" stroke-opacity="0.85"/><circle cx="187.13780968203076" cy="601.1087088483591" r="14.067173454255878" fill="none" stroke="#f75757" stroke-opacity="0.85"/><circle cx="288.3337201532851" cy="372.72441056169083" r="13.941755065562461" fill="none" stroke="#3c3c3c" stroke-opacity="0.85"/><circle cx="413.2310661051906" cy="614.5934928648451" r="13.858510116725316" fill="none" stroke="#f75757" stroke-opacity="0.85"/><circle cx="272.05776652629766" cy="378.64837321621127" r="13.766152160122548" fill="none" stroke="#f75757" stroke-opacity="0.85"/><circle cx="381.21167289693653" cy="450.6582664533895" r="13.743634724972193" fill="none" stroke="#f75757" stroke-opacity="0.85"/><circle cx="97.26753160198811" cy="506.11748231761146" r="13.726785197619792" fill="none" stroke="#f75757" stroke-opacity="0.85"/><circle cx="216.682042272397" cy="606.318154178367" r="13.70175396468473" fill="none" stroke="#f75757" stroke-opacity="0.85"/><circle cx="451.798322686383" cy="568.6308262777064" r="13.675518649404511" fill="none" stroke="#f75757" stroke-opacity="0.85"/><circle cx="143.08771781934183" cy="505.402964993099" r="13.669232946375066" fill="none" stroke="#3c3c3c" stroke-opacity="0.85"/><circle cx="271.52525248057685" cy="554.4315249367078" r="13.403624960862713" fill="none" stroke="#3c3c3c" stroke-opacity="0.85"/><circle cx="278.07311585351505" cy="344.53363193811356" r="13.350460126154662" fill="none" stroke="#3c3c3c" stroke-opacity="0.85"/><circle cx="333.621392324918" cy="547.7930449576749" r="13.34342242205347" fill="none" stroke="#f75757" stroke-opacity="0.85"/><circle cx="232.95799589938449" cy="600.3941915238465" r="13.323787777181211" fill="none" stroke="#3c3c3c" stroke-opacity="0.85"/><circle cx="255.24929885358938" cy="560.3554875912283" r="13.320465184325444" fill="none" stroke="#f75757" stroke-opacity="0.85"/><circle cx="361.92804460634034" cy="473.6395997469589" r="13.303950795969682" fill="none" stroke="#f75757" stroke-opacity="0.85"/><circle cx="402.97046180542054" cy="586.4027142412679" r="13.291095275300318" fill="none" stroke="#f75757" stroke-opacity="0.85"/><circle cx="203.41376330901824" cy="595.1847461938387" r="13.288888880504137" fill="none" stroke="#3c3c3c" stroke-opacity="0.85"/><circle cx="235.26060429977005" cy="328.1907786235773" r="13.271321636288844" fill="none" stroke="#6edcff" stroke-opacity="0.85"/><circle cx="132.82711351957175" cy="477.2121863695217" r="13.162728722715606" fill="none" stroke="#3c3c3c" stroke-opacity="0.85"/><circle cx="144.8578121740066" cy="408.9827038133262" r="13.162490347308733" fill="none" stroke="#f75757" stroke-opacity="0.85"/><circle cx="190.6779983913603" cy="408.2681864888137" r="13.150248375995186" fill="none" stroke="#3c3c3c" stroke-opacity="0.85"/><circle cx="284.7935314439556" cy="565.5649329212363" r="12.942577245885174" fill="none" stroke="#f75757" stroke-opacity="0.85"/><circle cx="221.45981129067047" cy="492.8405223595454" r="12.9245669979907" fill="none" stroke="#3c3c3c" stroke-opacity="0.85"/><circle cx="95.49743724732335" cy="602.5377434973842" r="12.878763015732286" fill="none" stroke="#3c3c3c" stroke-opacity="0.85"/><circle cx="311.33008937071315" cy="587.831748890293" r="12.863500584701553" fill="none" stroke="#3c3c3c" stroke-opacity="0.85"/><circle cx="262.50222848975073" cy="605.6036368538544" r="12.78150153467209" fill="none" stroke="#3c3c3c" stroke-opacity="0.85"/><circle cx="193.15315900924818" cy="566.9939675702614" r="12.715566488848669" fill="none" stroke="#3c3c3c" stroke-opacity="0.85"/><circle cx="342.64441631574414" cy="496.62093304052826" r="12.626284666620691" fill="none" stroke="#f75757" stroke-opacity="0.85"/><circle cx="224.4674859542792" cy="475.78315172049656" r="12.555219063931254" fill="none" stroke="#f75757" stroke-opacity="0.85"/><circle cx="313.1001837253779" cy="491.4114877105203" r="12.520065600709948" fill="none" stroke="#f75757" stroke-opacity="0.85"/><circle cx="252.77413823570149" cy="401.6297065097806" r="12.369291086696357" fill="none" stroke="#f75757" stroke-opacity="0.85"/><circle cx="298.5943244530552" cy="400.91518918526805" r="12.3258193953191" fill="none" stroke="#3c3c3c" stroke-opacity="0.85"/><circle cx="88.24450761116199" cy="557.289594234758" r="12.272678217621674" fill="none" stroke="#f75757" stroke-opacity="0.85"/><circle cx="223.76241969105607" cy="220.63710945927616" r="12.19891592057273" fill="none" stroke="#6edcff" stroke-opacity="0.85"/><circle cx="376.43390387866305" cy="564.1358982722111" r="12.025772993005305" fill="none" stroke="#6edcff" stroke-opacity="0.85"/><circle cx="263.03474253547154" cy="429.8204851333579" r="11.994560978751975" fill="none" stroke="#f75757" stroke-opacity="0.85"/><circle cx="323.36078802514794" cy="519.6022663340975" r="11.913140274600742" fill="none" stroke="#f75757" stroke-opacity="0.85"/><circle cx="292.04646108011696" cy="610.8130821838624" r="11.872071874700511" fill="none" stroke="#3c3c3c" stroke-opacity="0.85"/><circle cx="419.246415432408" cy="580.4787515867474" r="11.808587146418464" fill="none" stroke="#3c3c3c" stroke-opacity="0.85"/><circle cx="279.310696162459" cy="423.8965224788374" r="11.678638283566936" fill="none" stroke="#3c3c3c" stroke-opacity="0.85"/><circle cx="234.72809025404925" cy="503.9739303440738" r="11.678638283566936" fill="none" stroke="#f75757" stroke-opacity="0.85"/><circle cx="213.501815391286" cy="192.44633083569892" r="11.622053347945597" fill="none" stroke="#6edcff" stroke-opacity="0.85"/><circle cx="147.8654868376153" cy="391.9253331742774" r="11.548794912454097" fill="none" stroke="#6edcff" stroke-opacity="0.85"/><circle cx="183.95758280091974" cy="187.236885505691" r="11.52899122235597" fill="none" stroke="#6edcff" stroke-opacity="0.85"/><circle cx="284.6209792264533" cy="134.63573893951926" r="11.499936767765666" fill="none" stroke="#3c3c3c" stroke-opacity="0.85"/><circle cx="146.09539248295053" cy="488.34559435405004" r="11.498895411506828" fill="none" stroke="#f75757" stroke-opacity="0.85"/><circle cx="407.74823082369403" cy="472.9250824224463" r="11.136726820769848" fill="none" stroke="#3c3c3c" stroke-opacity="0.85"/><circle cx="441.53771838661294" cy="540.4400476541291" r="11.026105207211263" fill="none" stroke="#f75757" stroke-opacity="0.85"/><circle cx="192.98060679174586" cy="136.0647735885444" r="10.94923053227186" fill="none" stroke="#6edcff" stroke-opacity="0.85"/><circle cx="408.985811132638" cy="552.2879729631701" r="10.874719128938859" fill="none" stroke="#3c3c3c" stroke-opacity="0.85"/><circle cx="332.38381201597406" cy="468.4301544169509" r="10.794560649183596" fill="none" stroke="#f75757" stroke-opacity="0.85"/><circle cx="270.2876721716329" cy="475.06863439598396" r="10.738499011339636" fill="none" stroke="#3c3c3c" stroke-opacity="0.85"/><circle cx="283.5559511350117" cy="486.20204238051235" r="10.69638725051085" fill="none" stroke="#f75757" stroke-opacity="0.85"/><circle cx="214.20688165450912" cy="447.59237309691935" r="10.58355095500292" fill="none" stroke="#f75757" stroke-opacity="0.85"/><circle cx="155.11841647377665" cy="437.17348243690344" r="10.559380665026643" fill="none" stroke="#f75757" stroke-opacity="0.85"/><circle cx="397.48762652392395" cy="444.73430379886906" r="10.557953600620479" fill="none" stroke="#3c3c3c" stroke-opacity="0.85"/><circle cx="194.92325336391295" cy="470.5737063904886" r="10.557138130687514" fill="none" stroke="#f75757" stroke-opacity="0.85"/><circle cx="206.42143797262696" cy="578.1273755547898" r="10.549850173714297" fill="none" stroke="#f75757" stroke-opacity="0.85"/><circle cx="241.9810198902106" cy="549.2220796066999" r="10.528186798080235" fill="none" stroke="#3c3c3c" stroke-opacity="0.85"/><circle cx="215.44446196345308" cy="526.9552636376432" r="10.507817763782727" fill="none" stroke="#f75757" stroke-opacity="0.85"/><circle cx="299.8319047619991" cy="480.2780797259919" r="10.500709960840801" fill="none" stroke="#3c3c3c" stroke-opacity="0.85"/><circle cx="122.5665092198017" cy="449.02140774594443" r="10.460685357960422" fill="none" stroke="#3c3c3c" stroke-opacity="0.85"/><circle cx="225.70506626322316" cy="555.1460422612204" r="10.38295892434643" fill="none" stroke="#f75757" stroke-opacity="0.85"/><circle cx="174.40204476437282" cy="414.1921491433342" r="10.378673901684603" fill="none" stroke="#f75757" stroke-opacity="0.85"/><circle cx="468.07427631337043" cy="562.706863623186" r="10.37297441882874" fill="none" stroke="#3c3c3c" stroke-opacity="0.85"/><circle cx="141.85013751039787" cy="426.0400744523751" r="10.355410724232101" fill="none" stroke="#3c3c3c" stroke-opacity="0.85"/><circle cx="249.7664635720928" cy="418.6870771488295" r="10.352961808806848" fill="none" stroke="#3c3c3c" stroke-opacity="0.85"/><circle cx="175.63962507331678" cy="493.555039684058" r="10.254367565774036" fill="none" stroke="#f75757" stroke-opacity="0.85"/><circle cx="172.63195040970805" cy="510.6124103231069" r="10.096676200018686" fill="none" stroke="#3c3c3c" stroke-opacity="0.85"/><circle cx="352.9050206155142" cy="524.8117116641055" r="10.044356229529301" fill="none" stroke="#f75757" stroke-opacity="0.85"/><circle cx="411.99348579624666" cy="535.2306023241213" r="10.021052880409123" fill="none" stroke="#f75757" stroke-opacity="0.85"/><circle cx="156.35599678272058" cy="516.5363729776274" r="10.014511077016813" fill="none" stroke="#f75757" stroke-opacity="0.85"/><circle cx="360.1579502516756" cy="570.0598609267315" r="9.862188241110093" fill="none" stroke="#3c3c3c" stroke-opacity="0.85"/><circle cx="252.24162418998066" cy="577.4128582302772" r="9.833294991204829" fill="none" stroke="#3c3c3c" stroke-opacity="0.85"/><circle cx="422.25409009601674" cy="563.4213809476985" r="9.672999446590165" fill="none" stroke="#f75757" stroke-opacity="0.85"/><circle cx="162.371346109938" cy="482.4216316995296" r="9.581836970349586" fill="none" stroke="#3c3c3c" stroke-opacity="0.85"/><circle cx="125.5741838834104" cy="431.9640371068956" r="9.560729950582168" fill="none" stroke="#f75757" stroke-opacity="0.85"/><circle cx="181.65497440053417" cy="459.4402984059603" r="9.452697272023718" fill="none" stroke="#3c3c3c" stroke-opacity="0.85"/><circle cx="254.01171854464542" cy="480.9925970505045" r="9.430139581313323" fill="none" stroke="#f75757" stroke-opacity="0.85"/><circle cx="165.3790207735467" cy="465.36426106048077" r="9.391374730367634" fill="none" stroke="#f75757" stroke-opacity="0.85"/><circle cx="244.9886945538193" cy="532.1647089676511" r="9.385631074018974" fill="none" stroke="#f75757" stroke-opacity="0.85"/><circle cx="351.66744030657026" cy="445.44882112338166" r="9.330851897072332" fill="none" stroke="#f75757" stroke-opacity="0.85"/><circle cx="191.91557870030425" cy="487.6310770295375" r="9.048684364214191" fill="none" stroke="#3c3c3c" stroke-opacity="0.85"/><circle cx="152.11074181016795" cy="454.2308530759523" r="9.006648066239693" fill="none" stroke="#3c3c3c" stroke-opacity="0.85"/><circle cx="154.41335021055352" cy="182.02744017568307" r="8.98801654560074" fill="none" stroke="#6edcff" stroke-opacity="0.85"/><circle cx="222.69739159961443" cy="572.2034129002693" r="8.30176969957389" fill="none" stroke="#3c3c3c" stroke-opacity="0.85"/><circle cx="367.94339393355773" cy="439.5248584688611" r="8.269213739967718" fill="none" stroke="#3c3c3c" stroke-opacity="0.85"/><circle cx="304.0771597345518" cy="542.5835996276669" r="8.242297110090995" fill="none" stroke="#f75757" stroke-opacity="0.85"/><circle cx="400.4953011875327" cy="427.6769331598202" r="8.231163252364006" fill="none" stroke="#f75757" stroke-opacity="0.85"/><circle cx="243.75111424487537" cy="452.8018184269272" r="8.095170293089687" fill="none" stroke="#f75757" stroke-opacity="0.85"/><circle cx="418.0088351234641" cy="501.11586104602355" r="8.039947125862396" fill="none" stroke="#3c3c3c" stroke-opacity="0.85"/><circle cx="201.47111673685117" cy="260.67581339189434" r="7.8942963995392805" fill="none" stroke="#f75757" stroke-opacity="0.85"/><circle cx="200.93860269113037" cy="436.4589651123909" r="7.827831217554676" fill="none" stroke="#3c3c3c" stroke-opacity="0.85"/><circle cx="232.78544368188216" cy="169.46499754212957" r="7.791998113089223" fill="none" stroke="#6edcff" stroke-opacity="0.85"/><circle cx="273.2953468352416" cy="458.01126375693514" r="7.7880621575330755" fill="none" stroke="#f75757" stroke-opacity="0.85"/><circle cx="302.83957942560784" cy="463.2207090869431" r="7.726108820773522" fill="none" stroke="#f75757" stroke-opacity="0.85"/><circle cx="310.0925090617692" cy="508.46885834956913" r="7.681129663535734" fill="none" stroke="#3c3c3c" stroke-opacity="0.85"/><circle cx="363.6981389610051" cy="377.2193385671861" r="7.5701960784313735" fill="none" stroke="#6edcff" stroke-opacity="0.85"/><circle cx="269.05009186268893" cy="395.70574385526015" r="7.472841397489904" fill="none" stroke="#3c3c3c" stroke-opacity="0.85"/><circle cx="235.96567056299318" cy="583.3368208847976" r="7.450002538046414" fill="none" stroke="#f75757" stroke-opacity="0.85"/><circle cx="112.30590492003164" cy="420.8306291223672" r="7.405273854576471" fill="none" stroke="#3c3c3c" stroke-opacity="0.85"/><circle cx="325.13088237981276" cy="423.1820051543248" r="7.338714897129002" fill="none" stroke="#6edcff" stroke-opacity="0.85"/><circle cx="135.83478818318048" cy="460.1548157304728" r="7.3058246039361645" fill="none" stroke="#f75757" stroke-opacity="0.85"/><circle cx="252.06907197247835" cy="146.48366424856022" r="7.1027346670269065" fill="none" stroke="#6edcff" stroke-opacity="0.85"/><circle cx="324.5983683340919" cy="598.9651568748213" r="7.027876425652078" fill="none" stroke="#f75757" stroke-opacity="0.85"/><circle cx="289.5713004622291" cy="452.08730110241464" r="7.017015635365703" fill="none" stroke="#3c3c3c" stroke-opacity="0.85"/><circle cx="410.75590548730275" cy="455.86771178339745" r="6.968125634910781" fill="none" stroke="#f75757" stroke-opacity="0.85"/><circle cx="321.59069367048323" cy="616.0225275138703" r="6.9060641485143295" fill="none" stroke="#3c3c3c" stroke-opacity="0.85"/><circle cx="302.1345131623847" cy="208.07466682572263" r="6.726326920936819" fill="none" stroke="#6edcff" stroke-opacity="0.85"/><circle cx="246.22627486276326" cy="611.5275995083748" r="6.713048953968336" fill="none" stroke="#f75757" stroke-opacity="0.85"/><circle cx="231.72041559044055" cy="521.0313009831227" r="6.677049454698946" fill="none" stroke="#3c3c3c" stroke-opacity="0.85"/><circle cx="203.24121109151594" cy="164.25555221212164" r="6.6038426896088325" fill="none" stroke="#6edcff" stroke-opacity="0.85"/><circle cx="429.5070197321781" cy="608.6695302103246" r="6.603426484947636" fill="none" stroke="#3c3c3c" stroke-opacity="0.85"/><circle cx="319.1155330525953" cy="457.29674643242254" r="6.599753806717453" fill="none" stroke="#3c3c3c" stroke-opacity="0.85"/><circle cx="334.1539063706389" cy="372.00989323717823" r="6.586109264872491" fill="none" stroke="#6edcff" stroke-opacity="0.85"/><circle cx="387.2270222241539" cy="416.5435251752918" r="6.55014085567516" fill="none" stroke="#3c3c3c" stroke-opacity="0.85"/><circle cx="265.3373509358571" cy="157.6170722330886" r="6.53359011562377" fill="none" stroke="#3c3c3c" stroke-opacity="0.85"/><circle cx="432.5146943957868" cy="591.6121595712757" r="6.468032259669959" fill="none" stroke="#f75757" stroke-opacity="0.85"/><circle cx="454.8059973499917" cy="551.5734556386576" r="6.467450980392156" fill="none" stroke="#6edcff" stroke-opacity="0.85"/><circle cx="370.95106859716645" cy="422.4674878298123" r="6.21929409156527" fill="none" stroke="#f75757" stroke-opacity="0.85"/><circle cx="354.675114970179" cy="428.3914504843327" r="6.023362591135695" fill="none" stroke="#6edcff" stroke-opacity="0.85"/><circle cx="348.6597656429616" cy="462.5061917624305" r="5.971214920016296" fill="none" stroke="#3c3c3c" stroke-opacity="0.85"/><circle cx="438.5300437230042" cy="557.497418293178" r="5.6373257238057874" fill="none" stroke="#3c3c3c" stroke-opacity="0.85"/><circle cx="344.4145106704089" cy="400.2006718607555" r="5.62349228204752" fill="none" stroke="#6edcff" stroke-opacity="0.85"/><circle cx="421.0165097870728" cy="484.05849040697467" r="5.530810920812846" fill="none" stroke="#f75757" stroke-opacity="0.85"/><circle cx="288.86623419900593" cy="196.94125884119427" r="5.2785107016616974" fill="none" stroke="#f75757" stroke-opacity="0.85"/><circle cx="292.5789751258378" cy="435.02993046336576" r="5.275964246765849" fill="none" stroke="#f75757" stroke-opacity="0.85"/><circle cx="393.2423715513713" cy="382.4287838971941" r="5.275294117647058" fill="none" stroke="#6edcff" stroke-opacity="0.85"/><circle cx="442.7752986955569" cy="619.802938194853" r="4.699746686966061" fill="none" stroke="#f75757" stroke-opacity="0.85"/><circle cx="82.22915828394457" cy="591.4043355128558" r="4.679215686274507" fill="none" stroke="#6edcff" stroke-opacity="0.85"/><circle cx="314.3377640343218" cy="570.7743782512441" r="4.66612411264443" fill="none" stroke="#f75757" stroke-opacity="0.85"/><circle cx="431.27711408684286" cy="512.2492690305519" r="4.623655990608313" fill="none" stroke="#f75757" stroke-opacity="0.85"/><circle cx="444.5453930502216" cy="523.3826770150804" r="4.500392156862745" fill="none" stroke="#6edcff" stroke-opacity="0.85"/><circle cx="322.123207716204" cy="440.2393757933737" r="4.472549972165732" fill="none" stroke="#f75757" stroke-opacity="0.85"/><circle cx="428.2694394232342" cy="529.3066396696008" r="4.387116231800374" fill="none" stroke="#3c3c3c" stroke-opacity="0.85"/><circle cx="373.9587432607751" cy="405.4101171907634" r="4.246252816627806" fill="none" stroke="#6edcff" stroke-opacity="0.85"/><circle cx="90.01460196582676" cy="460.8693330549854" r="4.2321568627450965" fill="none" stroke="#6edcff" stroke-opacity="0.85"/><circle cx="275.5979552356272" cy="185.80785085666585" r="4.069831628821769" fill="none" stroke="#3c3c3c" stroke-opacity="0.85"/><circle cx="144.15274591078344" cy="153.83666155210582" r="3.993725490196079" fill="none" stroke="#6edcff" stroke-opacity="0.85"/><circle cx="246.05372264526093" cy="180.59840552665796" r="3.9369387502392406" fill="none" stroke="#3c3c3c" stroke-opacity="0.85"/><circle cx="360.6904642973964" cy="394.276709206235" r="3.9213614606553326" fill="none" stroke="#f75757" stroke-opacity="0.85"/><circle cx="338.3991613431915" cy="434.3154131388532" r="3.857190527996061" fill="none" stroke="#3c3c3c" stroke-opacity="0.85"/><circle cx="308.85492875282523" cy="429.1059678088453" r="3.8175758116071323" fill="none" stroke="#3c3c3c" stroke-opacity="0.85"/><circle cx="249.23394952637196" cy="594.4702288693261" r="3.800816436767541" fill="none" stroke="#6edcff" stroke-opacity="0.85"/><circle cx="435.5223690593955" cy="574.554788932227" r="3.7987387848287186" fill="none" stroke="#6edcff" stroke-opacity="0.85"/><circle cx="249.06139730886963" cy="163.5410348876091" r="3.7257052857492496" fill="none" stroke="#f75757" stroke-opacity="0.85"/><circle cx="271.35270026307455" cy="123.5023309549909" r="3.725490196078431" fill="none" stroke="#6edcff" stroke-opacity="0.85"/><circle cx="424.0241844506815" cy="467.00111976792584" r="3.366468161812404" fill="none" stroke="#6edcff" stroke-opacity="0.85"/><circle cx="272.59028057201846" cy="202.86522149571474" r="3.352081308238365" fill="none" stroke="#6edcff" stroke-opacity="0.85"/><circle cx="291.87390886261466" cy="179.88388820214539" r="3.3182780478495992" fill="none" stroke="#6edcff" stroke-opacity="0.85"/><circle cx="259.3220016086397" cy="191.73181351118632" r="3.2982428890605857" fill="none" stroke="#f75757" stroke-opacity="0.85"/><circle cx="262.32967627224843" cy="174.6744428721375" r="3.272235632796233" fill="none" stroke="#6edcff" stroke-opacity="0.85"/><circle cx="335.3914866795828" cy="451.3727837779021" r="3.2467131635665867" fill="none" stroke="#6edcff" stroke-opacity="0.85"/><circle cx="341.4068360068002" cy="417.25804249980433" r="3.032035789096046" fill="none" stroke="#f75757" stroke-opacity="0.85"/><circle cx="320.8856274072601" cy="360.87648525264984" r="3.0201454526682148" fill="none" stroke="#f75757" stroke-opacity="0.85"/><circle cx="266.04241719908026" cy="412.763114494309" r="2.891975682416499" fill="none" stroke="#6edcff" stroke-opacity="0.85"/><circle cx="445.78297335916557" cy="602.7455675558042" r="2.8126862919105826" fill="none" stroke="#6edcff" stroke-opacity="0.85"/><circle cx="413.7635801509114" cy="438.81034114434857" r="2.799317579784829" fill="none" stroke="#6edcff" stroke-opacity="0.85"/><circle cx="305.84725408921656" cy="446.16333844789415" r="2.7232878763432122" fill="none" stroke="#6edcff" stroke-opacity="0.85"/><circle cx="311.86260341643396" cy="412.04859716979644" r="2.6345364215813865" fill="none" stroke="#f75757" stroke-opacity="0.85"/><circle cx="347.4221853340176" cy="383.1433012217066" r="2.609630975589089" fill="none" stroke="#3c3c3c" stroke-opacity="0.85"/><circle cx="219.6897169360057" cy="589.2607835393181" r="2.596744200791615" fill="none" stroke="#6edcff" stroke-opacity="0.85"/><circle cx="357.68278963378765" cy="411.3340798452839" r="2.5948890486284975" fill="none" stroke="#3c3c3c" stroke-opacity="0.85"/><circle cx="390.23469688776265" cy="399.4861545362429" r="2.584713013143678" fill="none" stroke="#f75757" stroke-opacity="0.85"/><circle cx="163.43637420137964" cy="130.85532825853647" r="2.5333333333333328" fill="none" stroke="#6edcff" stroke-opacity="0.85"/><circle cx="434.2847887504515" cy="495.19189839150306" r="2.4462393527055113" fill="none" stroke="#6edcff" stroke-opacity="0.85"/><circle cx="216.50949005489468" cy="175.38896019665003" r="2.4031631414577044" fill="none" stroke="#3c3c3c" stroke-opacity="0.85"/><circle cx="246.75878890848406" cy="435.74444778787836" r="2.364409443502601" fill="none" stroke="#6edcff" stroke-opacity="0.85"/><circle cx="295.5866497894465" cy="417.97255982431693" r="1.831347257582544" fill="none" stroke="#6edcff" stroke-opacity="0.85"/><circle cx="238.9733452266019" cy="566.2794502457488" r="1.7614843581919117" fill="none" stroke="#6edcff" stroke-opacity="0.85"/><circle cx="328.13855704342143" cy="406.12463451527594" r="1.7078893514217577" fill="none" stroke="#3c3c3c" stroke-opacity="0.85"/><circle cx="229.77776901827346" cy="186.52236818117842" r="1.649012975158737" fill="none" stroke="#f75757" stroke-opacity="0.85"/><circle cx="425.26176475962546" cy="546.3640103086497" r="1.599952013468094" fill="none" stroke="#6edcff" stroke-opacity="0.85"/><circle cx="276.3030214988503" cy="440.95389311788625" r="1.480138537627909" fill="none" stroke="#6edcff" stroke-opacity="0.85"/><circle cx="286.56362579862036" cy="469.1446717414635" r="1.4015837653385894" fill="none" stroke="#6edcff" stroke-opacity="0.85"/><circle cx="167.68162917393227" cy="193.16084816021146" r="1.3823717802755016" fill="none" stroke="#3c3c3c" stroke-opacity="0.85"/><circle cx="285.8585595353972" cy="213.99862948024312" r="1.3058993837332604" fill="none" stroke="#3c3c3c" stroke-opacity="0.85"/><circle cx="200.2335364279072" cy="181.31292285117053" r="1.211724851420429" fill="none" stroke="#f75757" stroke-opacity="0.85"/><circle cx="317.87795274365135" cy="377.9338558916987" r="1.1145101003400848" fill="none" stroke="#3c3c3c" stroke-opacity="0.85"/><circle cx="131.58953321062782" cy="397.84929582879784" r="1.023142848036692" fill="none" stroke="#3c3c3c" stroke-opacity="0.85"/><circle cx="148.39800088333612" cy="216.1421814537808" r="0.9238089506747952" fill="none" stroke="#3c3c3c" stroke-opacity="0.85"/><circle cx="218.45213662706178" cy="509.8978929985943" r="0.8335293372163729" fill="none" stroke="#6edcff" stroke-opacity="0.85"/><circle cx="376.96641792438385" cy="388.3527465517145" r="0.8178829211972346" fill="none" stroke="#3c3c3c" stroke-opacity="0.85"/><circle cx="165.9115348192675" cy="289.58110933998415" r="0.5662745098039212" fill="none" stroke="#6edcff" stroke-opacity="0.85"/><circle cx="416.77125481452015" cy="421.7529705052997" r="0.4798014922021448" fill="none" stroke="#3c3c3c" stroke-opacity="0.85"/><circle cx="228.71274092683183" cy="538.0886716221715" r="0.399565500811548" fill="none" stroke="#6edcff" stroke-opacity="0.85"/><circle cx="85.2368329475533" cy="574.3469648738069" r="0.3720910856807673" fill="none" stroke="#3c3c3c" stroke-opacity="0.85"/><circle cx="311.1575371532108" cy="156.90255490857606" r="0.29803921568627345" fill="none" stroke="#6edcff" stroke-opacity="0.85"/><circle cx="187.6703237277516" cy="425.3255571278625" r="0.2445530555917577" fill="none" stroke="#6edcff" stroke-opacity="0.85"/><circle cx="212.26423508234205" cy="113.08344029497505" r="0.1788235294117666" fill="none" stroke="#6edcff" stroke-opacity="0.85"/><circle cx="151.4056755469448" cy="199.08481081473195" r="0.15155129822872437" fill="none" stroke="#f75757" stroke-opacity="0.85"/><circle cx="296.82423009839044" cy="497.33545036504074" r="0.14547909231875922" fill="none" stroke="#6edcff" stroke-opacity="0.85"/></g></svg>